M48
; DRILL file {KiCad 8.0.2} date 2025-11-24T02:49:41+0100
; FORMAT={-:-/ absolute / metric / decimal}
; #@! TF.CreationDate,2025-11-24T02:49:41+01:00
; #@! TF.GenerationSoftware,Kicad,Pcbnew,8.0.2
; #@! TF.FileFunction,Plated,1,2,PTH
FMAT,2
METRIC
; #@! TA.AperFunction,Plated,PTH,ViaDrill
T1C0.300
%
G90
G05
T1
X75.55Y-102.55
X75.55Y-108.55
X75.55Y-114.55
X75.55Y-120.55
X79.35Y-102.85
X79.35Y-108.85
X79.35Y-114.85
X79.35Y-120.85
X81.55Y-102.55
X81.55Y-108.55
X81.55Y-114.55
X81.55Y-120.55
X85.35Y-102.85
X85.35Y-108.85
X85.35Y-114.85
X85.35Y-120.85
X87.55Y-102.55
X87.55Y-108.55
X87.55Y-114.55
X87.55Y-120.55
X91.35Y-102.85
X91.35Y-108.85
X91.35Y-114.85
X91.35Y-120.85
X93.55Y-102.55
X93.55Y-108.55
X93.55Y-114.55
X93.55Y-120.55
X97.35Y-102.85
X97.35Y-108.85
X97.35Y-114.85
X97.35Y-120.85
M30
