%TF.GenerationSoftware,KiCad,Pcbnew,8.0.2*%
%TF.CreationDate,2025-11-24T02:49:30+01:00*%
%TF.ProjectId,tactileSensorPanel,74616374-696c-4655-9365-6e736f725061,rev?*%
%TF.SameCoordinates,Original*%
%TF.FileFunction,Copper,L2,Bot*%
%TF.FilePolarity,Positive*%
%FSLAX46Y46*%
G04 Gerber Fmt 4.6, Leading zero omitted, Abs format (unit mm)*
G04 Created by KiCad (PCBNEW 8.0.2) date 2025-11-24 02:49:30*
%MOMM*%
%LPD*%
G01*
G04 APERTURE LIST*
G04 Aperture macros list*
%AMRoundRect*
0 Rectangle with rounded corners*
0 $1 Rounding radius*
0 $2 $3 $4 $5 $6 $7 $8 $9 X,Y pos of 4 corners*
0 Add a 4 corners polygon primitive as box body*
4,1,4,$2,$3,$4,$5,$6,$7,$8,$9,$2,$3,0*
0 Add four circle primitives for the rounded corners*
1,1,$1+$1,$2,$3*
1,1,$1+$1,$4,$5*
1,1,$1+$1,$6,$7*
1,1,$1+$1,$8,$9*
0 Add four rect primitives between the rounded corners*
20,1,$1+$1,$2,$3,$4,$5,0*
20,1,$1+$1,$4,$5,$6,$7,0*
20,1,$1+$1,$6,$7,$8,$9,0*
20,1,$1+$1,$8,$9,$2,$3,0*%
G04 Aperture macros list end*
%TA.AperFunction,SMDPad,CuDef*%
%ADD10RoundRect,0.250000X-0.250000X-0.475000X0.250000X-0.475000X0.250000X0.475000X-0.250000X0.475000X0*%
%TD*%
%TA.AperFunction,ViaPad*%
%ADD11C,0.700000*%
%TD*%
%TA.AperFunction,Conductor*%
%ADD12C,0.200000*%
%TD*%
G04 APERTURE END LIST*
D10*
%TO.P,C3,1*%
%TO.N,1 3V3*%
X88500000Y-109050000D03*
%TO.P,C3,2*%
%TO.N,2 GND*%
X90400000Y-109050000D03*
%TD*%
%TO.P,C3,1*%
%TO.N,1 3V3*%
X88500000Y-121050000D03*
%TO.P,C3,2*%
%TO.N,2 GND*%
X90400000Y-121050000D03*
%TD*%
%TO.P,C3,1*%
%TO.N,1 3V3*%
X88500000Y-103050000D03*
%TO.P,C3,2*%
%TO.N,2 GND*%
X90400000Y-103050000D03*
%TD*%
%TO.P,C3,1*%
%TO.N,1 3V3*%
X94500000Y-109050000D03*
%TO.P,C3,2*%
%TO.N,2 GND*%
X96400000Y-109050000D03*
%TD*%
%TO.P,C3,1*%
%TO.N,1 3V3*%
X94500000Y-103050000D03*
%TO.P,C3,2*%
%TO.N,2 GND*%
X96400000Y-103050000D03*
%TD*%
%TO.P,C3,1*%
%TO.N,1 3V3*%
X88500000Y-115050000D03*
%TO.P,C3,2*%
%TO.N,2 GND*%
X90400000Y-115050000D03*
%TD*%
%TO.P,C3,1*%
%TO.N,1 3V3*%
X94500000Y-115050000D03*
%TO.P,C3,2*%
%TO.N,2 GND*%
X96400000Y-115050000D03*
%TD*%
%TO.P,C3,1*%
%TO.N,1 3V3*%
X94500000Y-121050000D03*
%TO.P,C3,2*%
%TO.N,2 GND*%
X96400000Y-121050000D03*
%TD*%
%TO.P,C3,1*%
%TO.N,1 3V3*%
X76500000Y-109050000D03*
%TO.P,C3,2*%
%TO.N,2 GND*%
X78400000Y-109050000D03*
%TD*%
%TO.P,C3,1*%
%TO.N,1 3V3*%
X76500000Y-103050000D03*
%TO.P,C3,2*%
%TO.N,2 GND*%
X78400000Y-103050000D03*
%TD*%
%TO.P,C3,1*%
%TO.N,1 3V3*%
X82500000Y-103050000D03*
%TO.P,C3,2*%
%TO.N,2 GND*%
X84400000Y-103050000D03*
%TD*%
%TO.P,C3,1*%
%TO.N,1 3V3*%
X82500000Y-109050000D03*
%TO.P,C3,2*%
%TO.N,2 GND*%
X84400000Y-109050000D03*
%TD*%
%TO.P,C3,1*%
%TO.N,1 3V3*%
X76500000Y-115050000D03*
%TO.P,C3,2*%
%TO.N,2 GND*%
X78400000Y-115050000D03*
%TD*%
%TO.P,C3,1*%
%TO.N,1 3V3*%
X82500000Y-115050000D03*
%TO.P,C3,2*%
%TO.N,2 GND*%
X84400000Y-115050000D03*
%TD*%
%TO.P,C3,1*%
%TO.N,1 3V3*%
X82500000Y-121050000D03*
%TO.P,C3,2*%
%TO.N,2 GND*%
X84400000Y-121050000D03*
%TD*%
%TO.P,C3,1*%
%TO.N,1 3V3*%
X76500000Y-121050000D03*
%TO.P,C3,2*%
%TO.N,2 GND*%
X78400000Y-121050000D03*
%TD*%
D11*
%TO.N,2 GND*%
X97350000Y-108850000D03*
X97350000Y-102850000D03*
%TO.N,1 3V3*%
X93550000Y-102550000D03*
%TO.N,2 GND*%
X97350000Y-120850000D03*
X91350000Y-114850000D03*
%TO.N,1 3V3*%
X87550000Y-102550000D03*
X93550000Y-108550000D03*
X87550000Y-108550000D03*
%TO.N,2 GND*%
X91350000Y-108850000D03*
X97350000Y-114850000D03*
%TO.N,1 3V3*%
X93550000Y-114550000D03*
X87550000Y-114550000D03*
X93550000Y-120550000D03*
%TO.N,2 GND*%
X91350000Y-102850000D03*
%TO.N,1 3V3*%
X87550000Y-120550000D03*
%TO.N,2 GND*%
X91350000Y-120850000D03*
X85350000Y-108850000D03*
X79350000Y-102850000D03*
X85350000Y-102850000D03*
%TO.N,1 3V3*%
X81550000Y-102550000D03*
X75550000Y-102550000D03*
X81550000Y-108550000D03*
X75550000Y-108550000D03*
%TO.N,2 GND*%
X79350000Y-108850000D03*
X85350000Y-114850000D03*
%TO.N,1 3V3*%
X81550000Y-114550000D03*
X75550000Y-114550000D03*
%TO.N,2 GND*%
X79350000Y-114850000D03*
%TO.N,1 3V3*%
X81550000Y-120550000D03*
%TO.N,2 GND*%
X85350000Y-120850000D03*
X79350000Y-120850000D03*
%TO.N,1 3V3*%
X75550000Y-120550000D03*
%TD*%
D12*
%TO.N,2 GND*%
X96600000Y-120850000D02*
X96400000Y-121050000D01*
X97350000Y-120850000D02*
X96600000Y-120850000D01*
%TO.N,1 3V3*%
X93550000Y-120550000D02*
X94000000Y-120550000D01*
X94000000Y-120550000D02*
X94500000Y-121050000D01*
X87550000Y-114550000D02*
X88000000Y-114550000D01*
X88000000Y-114550000D02*
X88500000Y-115050000D01*
%TO.N,2 GND*%
X91350000Y-114850000D02*
X90600000Y-114850000D01*
X90600000Y-114850000D02*
X90400000Y-115050000D01*
%TO.N,1 3V3*%
X94000000Y-114550000D02*
X94500000Y-115050000D01*
%TO.N,2 GND*%
X96600000Y-114850000D02*
X96400000Y-115050000D01*
%TO.N,1 3V3*%
X93550000Y-114550000D02*
X94000000Y-114550000D01*
%TO.N,2 GND*%
X97350000Y-114850000D02*
X96600000Y-114850000D01*
%TO.N,1 3V3*%
X88000000Y-120550000D02*
X88500000Y-121050000D01*
%TO.N,2 GND*%
X90600000Y-120850000D02*
X90400000Y-121050000D01*
X91350000Y-120850000D02*
X90600000Y-120850000D01*
%TO.N,1 3V3*%
X87550000Y-120550000D02*
X88000000Y-120550000D01*
%TO.N,2 GND*%
X91350000Y-102850000D02*
X90600000Y-102850000D01*
%TO.N,1 3V3*%
X88000000Y-108550000D02*
X88500000Y-109050000D01*
%TO.N,2 GND*%
X91350000Y-108850000D02*
X90600000Y-108850000D01*
X90600000Y-108850000D02*
X90400000Y-109050000D01*
%TO.N,1 3V3*%
X87550000Y-102550000D02*
X88000000Y-102550000D01*
X88000000Y-102550000D02*
X88500000Y-103050000D01*
%TO.N,2 GND*%
X97350000Y-102850000D02*
X96600000Y-102850000D01*
X96600000Y-102850000D02*
X96400000Y-103050000D01*
%TO.N,1 3V3*%
X94000000Y-108550000D02*
X94500000Y-109050000D01*
%TO.N,2 GND*%
X90600000Y-102850000D02*
X90400000Y-103050000D01*
%TO.N,1 3V3*%
X94000000Y-102550000D02*
X94500000Y-103050000D01*
X93550000Y-102550000D02*
X94000000Y-102550000D01*
X87550000Y-108550000D02*
X88000000Y-108550000D01*
%TO.N,2 GND*%
X96600000Y-108850000D02*
X96400000Y-109050000D01*
X97350000Y-108850000D02*
X96600000Y-108850000D01*
%TO.N,1 3V3*%
X93550000Y-108550000D02*
X94000000Y-108550000D01*
%TO.N,2 GND*%
X84600000Y-108850000D02*
X84400000Y-109050000D01*
X85350000Y-108850000D02*
X84600000Y-108850000D01*
%TO.N,1 3V3*%
X81550000Y-108550000D02*
X82000000Y-108550000D01*
X82000000Y-108550000D02*
X82500000Y-109050000D01*
X75550000Y-102550000D02*
X76000000Y-102550000D01*
X76000000Y-102550000D02*
X76500000Y-103050000D01*
%TO.N,2 GND*%
X79350000Y-102850000D02*
X78600000Y-102850000D01*
X78600000Y-102850000D02*
X78400000Y-103050000D01*
%TO.N,1 3V3*%
X82000000Y-102550000D02*
X82500000Y-103050000D01*
%TO.N,2 GND*%
X84600000Y-102850000D02*
X84400000Y-103050000D01*
%TO.N,1 3V3*%
X81550000Y-102550000D02*
X82000000Y-102550000D01*
%TO.N,2 GND*%
X85350000Y-102850000D02*
X84600000Y-102850000D01*
%TO.N,1 3V3*%
X76000000Y-108550000D02*
X76500000Y-109050000D01*
%TO.N,2 GND*%
X78600000Y-108850000D02*
X78400000Y-109050000D01*
X79350000Y-108850000D02*
X78600000Y-108850000D01*
%TO.N,1 3V3*%
X75550000Y-108550000D02*
X76000000Y-108550000D01*
%TO.N,2 GND*%
X84600000Y-114850000D02*
X84400000Y-115050000D01*
X85350000Y-114850000D02*
X84600000Y-114850000D01*
%TO.N,1 3V3*%
X81550000Y-114550000D02*
X82000000Y-114550000D01*
X82000000Y-114550000D02*
X82500000Y-115050000D01*
X76000000Y-114550000D02*
X76500000Y-115050000D01*
%TO.N,2 GND*%
X78600000Y-114850000D02*
X78400000Y-115050000D01*
X79350000Y-114850000D02*
X78600000Y-114850000D01*
%TO.N,1 3V3*%
X75550000Y-114550000D02*
X76000000Y-114550000D01*
X82000000Y-120550000D02*
X82500000Y-121050000D01*
%TO.N,2 GND*%
X84600000Y-120850000D02*
X84400000Y-121050000D01*
X85350000Y-120850000D02*
X84600000Y-120850000D01*
%TO.N,1 3V3*%
X81550000Y-120550000D02*
X82000000Y-120550000D01*
%TO.N,2 GND*%
X79350000Y-120850000D02*
X78600000Y-120850000D01*
X78600000Y-120850000D02*
X78400000Y-121050000D01*
%TO.N,1 3V3*%
X75550000Y-120550000D02*
X76000000Y-120550000D01*
X76000000Y-120550000D02*
X76500000Y-121050000D01*
%TD*%
M02*
