%TF.GenerationSoftware,KiCad,Pcbnew,8.0.2*%
%TF.CreationDate,2025-11-24T02:49:30+01:00*%
%TF.ProjectId,tactileSensorPanel,74616374-696c-4655-9365-6e736f725061,rev?*%
%TF.SameCoordinates,Original*%
%TF.FileFunction,Copper,L1,Top*%
%TF.FilePolarity,Positive*%
%FSLAX46Y46*%
G04 Gerber Fmt 4.6, Leading zero omitted, Abs format (unit mm)*
G04 Created by KiCad (PCBNEW 8.0.2) date 2025-11-24 02:49:30*
%MOMM*%
%LPD*%
G01*
G04 APERTURE LIST*
G04 Aperture macros list*
%AMRoundRect*
0 Rectangle with rounded corners*
0 $1 Rounding radius*
0 $2 $3 $4 $5 $6 $7 $8 $9 X,Y pos of 4 corners*
0 Add a 4 corners polygon primitive as box body*
4,1,4,$2,$3,$4,$5,$6,$7,$8,$9,$2,$3,0*
0 Add four circle primitives for the rounded corners*
1,1,$1+$1,$2,$3*
1,1,$1+$1,$4,$5*
1,1,$1+$1,$6,$7*
1,1,$1+$1,$8,$9*
0 Add four rect primitives between the rounded corners*
20,1,$1+$1,$2,$3,$4,$5,0*
20,1,$1+$1,$4,$5,$6,$7,0*
20,1,$1+$1,$6,$7,$8,$9,0*
20,1,$1+$1,$8,$9,$2,$3,0*%
G04 Aperture macros list end*
%TA.AperFunction,SMDPad,CuDef*%
%ADD10RoundRect,0.087500X-0.125000X-0.087500X0.125000X-0.087500X0.125000X0.087500X-0.125000X0.087500X0*%
%TD*%
%TA.AperFunction,SMDPad,CuDef*%
%ADD11RoundRect,0.087500X-0.087500X-0.125000X0.087500X-0.125000X0.087500X0.125000X-0.087500X0.125000X0*%
%TD*%
%TA.AperFunction,SMDPad,CuDef*%
%ADD12RoundRect,0.112500X-0.112500X0.637500X-0.112500X-0.637500X0.112500X-0.637500X0.112500X0.637500X0*%
%TD*%
%TA.AperFunction,SMDPad,CuDef*%
%ADD13RoundRect,0.112500X0.112500X-0.637500X0.112500X0.637500X-0.112500X0.637500X-0.112500X-0.637500X0*%
%TD*%
%TA.AperFunction,ViaPad*%
%ADD14C,0.700000*%
%TD*%
%TA.AperFunction,Conductor*%
%ADD15C,0.200000*%
%TD*%
G04 APERTURE END LIST*
D10*
%TO.P,U1,1,Vddio*%
%TO.N,1 3V3*%
X94687500Y-121062500D03*
%TO.P,U1,2,SCK*%
%TO.N,5 SCK*%
X94687500Y-121562500D03*
D11*
%TO.P,U1,3,Vss*%
%TO.N,2 GND*%
X94950000Y-122075000D03*
%TO.P,U1,4,SDI*%
%TO.N,6 SDI*%
X95450000Y-122075000D03*
%TO.P,U1,5,SDO*%
%TO.N,7 SDO*%
X95950000Y-122075000D03*
D10*
%TO.P,U1,6,CSB*%
%TO.N,3 CSB1*%
X96212500Y-121562500D03*
%TO.P,U1,7,INT*%
%TO.N,2 GND*%
X96212500Y-121062500D03*
D11*
%TO.P,U1,8,Vss*%
X95950000Y-120550000D03*
%TO.P,U1,9,Vss*%
X95450000Y-120550000D03*
%TO.P,U1,10,Vdd*%
%TO.N,1 3V3*%
X94950000Y-120550000D03*
%TD*%
D10*
%TO.P,U1,1,Vddio*%
%TO.N,1 3V3*%
X94687500Y-109062500D03*
%TO.P,U1,2,SCK*%
%TO.N,5 SCK*%
X94687500Y-109562500D03*
D11*
%TO.P,U1,3,Vss*%
%TO.N,2 GND*%
X94950000Y-110075000D03*
%TO.P,U1,4,SDI*%
%TO.N,6 SDI*%
X95450000Y-110075000D03*
%TO.P,U1,5,SDO*%
%TO.N,7 SDO*%
X95950000Y-110075000D03*
D10*
%TO.P,U1,6,CSB*%
%TO.N,3 CSB1*%
X96212500Y-109562500D03*
%TO.P,U1,7,INT*%
%TO.N,2 GND*%
X96212500Y-109062500D03*
D11*
%TO.P,U1,8,Vss*%
X95950000Y-108550000D03*
%TO.P,U1,9,Vss*%
X95450000Y-108550000D03*
%TO.P,U1,10,Vdd*%
%TO.N,1 3V3*%
X94950000Y-108550000D03*
%TD*%
D12*
%TO.P,J1,1,Pin_1*%
%TO.N,1 3V3*%
X87550000Y-124000000D03*
D13*
%TO.P,J1,2,Pin_2*%
%TO.N,5 SCK*%
X88200000Y-124000000D03*
%TO.P,J1,3,Pin_3*%
%TO.N,2 GND*%
X88850000Y-124000000D03*
%TO.P,J1,4,Pin_4*%
%TO.N,6 SDI*%
X89500000Y-124000000D03*
%TO.P,J1,5,Pin_5*%
%TO.N,7 SDO*%
X90150000Y-124000000D03*
%TO.P,J1,6,Pin_6*%
%TO.N,3 CSB1*%
X90800000Y-124000000D03*
%TO.P,J1,7,Pin_7*%
%TO.N,2 GND*%
X91450000Y-124000000D03*
%TD*%
D10*
%TO.P,U1,1,Vddio*%
%TO.N,1 3V3*%
X88687500Y-121062500D03*
%TO.P,U1,2,SCK*%
%TO.N,5 SCK*%
X88687500Y-121562500D03*
D11*
%TO.P,U1,3,Vss*%
%TO.N,2 GND*%
X88950000Y-122075000D03*
%TO.P,U1,4,SDI*%
%TO.N,6 SDI*%
X89450000Y-122075000D03*
%TO.P,U1,5,SDO*%
%TO.N,7 SDO*%
X89950000Y-122075000D03*
D10*
%TO.P,U1,6,CSB*%
%TO.N,3 CSB1*%
X90212500Y-121562500D03*
%TO.P,U1,7,INT*%
%TO.N,2 GND*%
X90212500Y-121062500D03*
D11*
%TO.P,U1,8,Vss*%
X89950000Y-120550000D03*
%TO.P,U1,9,Vss*%
X89450000Y-120550000D03*
%TO.P,U1,10,Vdd*%
%TO.N,1 3V3*%
X88950000Y-120550000D03*
%TD*%
D10*
%TO.P,U1,1,Vddio*%
%TO.N,1 3V3*%
X94687500Y-103062500D03*
%TO.P,U1,2,SCK*%
%TO.N,5 SCK*%
X94687500Y-103562500D03*
D11*
%TO.P,U1,3,Vss*%
%TO.N,2 GND*%
X94950000Y-104075000D03*
%TO.P,U1,4,SDI*%
%TO.N,6 SDI*%
X95450000Y-104075000D03*
%TO.P,U1,5,SDO*%
%TO.N,7 SDO*%
X95950000Y-104075000D03*
D10*
%TO.P,U1,6,CSB*%
%TO.N,3 CSB1*%
X96212500Y-103562500D03*
%TO.P,U1,7,INT*%
%TO.N,2 GND*%
X96212500Y-103062500D03*
D11*
%TO.P,U1,8,Vss*%
X95950000Y-102550000D03*
%TO.P,U1,9,Vss*%
X95450000Y-102550000D03*
%TO.P,U1,10,Vdd*%
%TO.N,1 3V3*%
X94950000Y-102550000D03*
%TD*%
D12*
%TO.P,J1,1,Pin_1*%
%TO.N,1 3V3*%
X93550000Y-112000000D03*
D13*
%TO.P,J1,2,Pin_2*%
%TO.N,5 SCK*%
X94200000Y-112000000D03*
%TO.P,J1,3,Pin_3*%
%TO.N,2 GND*%
X94850000Y-112000000D03*
%TO.P,J1,4,Pin_4*%
%TO.N,6 SDI*%
X95500000Y-112000000D03*
%TO.P,J1,5,Pin_5*%
%TO.N,7 SDO*%
X96150000Y-112000000D03*
%TO.P,J1,6,Pin_6*%
%TO.N,3 CSB1*%
X96800000Y-112000000D03*
%TO.P,J1,7,Pin_7*%
%TO.N,2 GND*%
X97450000Y-112000000D03*
%TD*%
D12*
%TO.P,J1,1,Pin_1*%
%TO.N,1 3V3*%
X87550000Y-106000000D03*
D13*
%TO.P,J1,2,Pin_2*%
%TO.N,5 SCK*%
X88200000Y-106000000D03*
%TO.P,J1,3,Pin_3*%
%TO.N,2 GND*%
X88850000Y-106000000D03*
%TO.P,J1,4,Pin_4*%
%TO.N,6 SDI*%
X89500000Y-106000000D03*
%TO.P,J1,5,Pin_5*%
%TO.N,7 SDO*%
X90150000Y-106000000D03*
%TO.P,J1,6,Pin_6*%
%TO.N,3 CSB1*%
X90800000Y-106000000D03*
%TO.P,J1,7,Pin_7*%
%TO.N,2 GND*%
X91450000Y-106000000D03*
%TD*%
D12*
%TO.P,J1,1,Pin_1*%
%TO.N,1 3V3*%
X93550000Y-106000000D03*
D13*
%TO.P,J1,2,Pin_2*%
%TO.N,5 SCK*%
X94200000Y-106000000D03*
%TO.P,J1,3,Pin_3*%
%TO.N,2 GND*%
X94850000Y-106000000D03*
%TO.P,J1,4,Pin_4*%
%TO.N,6 SDI*%
X95500000Y-106000000D03*
%TO.P,J1,5,Pin_5*%
%TO.N,7 SDO*%
X96150000Y-106000000D03*
%TO.P,J1,6,Pin_6*%
%TO.N,3 CSB1*%
X96800000Y-106000000D03*
%TO.P,J1,7,Pin_7*%
%TO.N,2 GND*%
X97450000Y-106000000D03*
%TD*%
D10*
%TO.P,U1,1,Vddio*%
%TO.N,1 3V3*%
X88687500Y-109062500D03*
%TO.P,U1,2,SCK*%
%TO.N,5 SCK*%
X88687500Y-109562500D03*
D11*
%TO.P,U1,3,Vss*%
%TO.N,2 GND*%
X88950000Y-110075000D03*
%TO.P,U1,4,SDI*%
%TO.N,6 SDI*%
X89450000Y-110075000D03*
%TO.P,U1,5,SDO*%
%TO.N,7 SDO*%
X89950000Y-110075000D03*
D10*
%TO.P,U1,6,CSB*%
%TO.N,3 CSB1*%
X90212500Y-109562500D03*
%TO.P,U1,7,INT*%
%TO.N,2 GND*%
X90212500Y-109062500D03*
D11*
%TO.P,U1,8,Vss*%
X89950000Y-108550000D03*
%TO.P,U1,9,Vss*%
X89450000Y-108550000D03*
%TO.P,U1,10,Vdd*%
%TO.N,1 3V3*%
X88950000Y-108550000D03*
%TD*%
D12*
%TO.P,J1,1,Pin_1*%
%TO.N,1 3V3*%
X87550000Y-112000000D03*
D13*
%TO.P,J1,2,Pin_2*%
%TO.N,5 SCK*%
X88200000Y-112000000D03*
%TO.P,J1,3,Pin_3*%
%TO.N,2 GND*%
X88850000Y-112000000D03*
%TO.P,J1,4,Pin_4*%
%TO.N,6 SDI*%
X89500000Y-112000000D03*
%TO.P,J1,5,Pin_5*%
%TO.N,7 SDO*%
X90150000Y-112000000D03*
%TO.P,J1,6,Pin_6*%
%TO.N,3 CSB1*%
X90800000Y-112000000D03*
%TO.P,J1,7,Pin_7*%
%TO.N,2 GND*%
X91450000Y-112000000D03*
%TD*%
D10*
%TO.P,U1,1,Vddio*%
%TO.N,1 3V3*%
X94687500Y-115062500D03*
%TO.P,U1,2,SCK*%
%TO.N,5 SCK*%
X94687500Y-115562500D03*
D11*
%TO.P,U1,3,Vss*%
%TO.N,2 GND*%
X94950000Y-116075000D03*
%TO.P,U1,4,SDI*%
%TO.N,6 SDI*%
X95450000Y-116075000D03*
%TO.P,U1,5,SDO*%
%TO.N,7 SDO*%
X95950000Y-116075000D03*
D10*
%TO.P,U1,6,CSB*%
%TO.N,3 CSB1*%
X96212500Y-115562500D03*
%TO.P,U1,7,INT*%
%TO.N,2 GND*%
X96212500Y-115062500D03*
D11*
%TO.P,U1,8,Vss*%
X95950000Y-114550000D03*
%TO.P,U1,9,Vss*%
X95450000Y-114550000D03*
%TO.P,U1,10,Vdd*%
%TO.N,1 3V3*%
X94950000Y-114550000D03*
%TD*%
D12*
%TO.P,J1,1,Pin_1*%
%TO.N,1 3V3*%
X93550000Y-124000000D03*
D13*
%TO.P,J1,2,Pin_2*%
%TO.N,5 SCK*%
X94200000Y-124000000D03*
%TO.P,J1,3,Pin_3*%
%TO.N,2 GND*%
X94850000Y-124000000D03*
%TO.P,J1,4,Pin_4*%
%TO.N,6 SDI*%
X95500000Y-124000000D03*
%TO.P,J1,5,Pin_5*%
%TO.N,7 SDO*%
X96150000Y-124000000D03*
%TO.P,J1,6,Pin_6*%
%TO.N,3 CSB1*%
X96800000Y-124000000D03*
%TO.P,J1,7,Pin_7*%
%TO.N,2 GND*%
X97450000Y-124000000D03*
%TD*%
D12*
%TO.P,J1,1,Pin_1*%
%TO.N,1 3V3*%
X87550000Y-118000000D03*
D13*
%TO.P,J1,2,Pin_2*%
%TO.N,5 SCK*%
X88200000Y-118000000D03*
%TO.P,J1,3,Pin_3*%
%TO.N,2 GND*%
X88850000Y-118000000D03*
%TO.P,J1,4,Pin_4*%
%TO.N,6 SDI*%
X89500000Y-118000000D03*
%TO.P,J1,5,Pin_5*%
%TO.N,7 SDO*%
X90150000Y-118000000D03*
%TO.P,J1,6,Pin_6*%
%TO.N,3 CSB1*%
X90800000Y-118000000D03*
%TO.P,J1,7,Pin_7*%
%TO.N,2 GND*%
X91450000Y-118000000D03*
%TD*%
D12*
%TO.P,J1,1,Pin_1*%
%TO.N,1 3V3*%
X93550000Y-118000000D03*
D13*
%TO.P,J1,2,Pin_2*%
%TO.N,5 SCK*%
X94200000Y-118000000D03*
%TO.P,J1,3,Pin_3*%
%TO.N,2 GND*%
X94850000Y-118000000D03*
%TO.P,J1,4,Pin_4*%
%TO.N,6 SDI*%
X95500000Y-118000000D03*
%TO.P,J1,5,Pin_5*%
%TO.N,7 SDO*%
X96150000Y-118000000D03*
%TO.P,J1,6,Pin_6*%
%TO.N,3 CSB1*%
X96800000Y-118000000D03*
%TO.P,J1,7,Pin_7*%
%TO.N,2 GND*%
X97450000Y-118000000D03*
%TD*%
D10*
%TO.P,U1,1,Vddio*%
%TO.N,1 3V3*%
X88687500Y-115062500D03*
%TO.P,U1,2,SCK*%
%TO.N,5 SCK*%
X88687500Y-115562500D03*
D11*
%TO.P,U1,3,Vss*%
%TO.N,2 GND*%
X88950000Y-116075000D03*
%TO.P,U1,4,SDI*%
%TO.N,6 SDI*%
X89450000Y-116075000D03*
%TO.P,U1,5,SDO*%
%TO.N,7 SDO*%
X89950000Y-116075000D03*
D10*
%TO.P,U1,6,CSB*%
%TO.N,3 CSB1*%
X90212500Y-115562500D03*
%TO.P,U1,7,INT*%
%TO.N,2 GND*%
X90212500Y-115062500D03*
D11*
%TO.P,U1,8,Vss*%
X89950000Y-114550000D03*
%TO.P,U1,9,Vss*%
X89450000Y-114550000D03*
%TO.P,U1,10,Vdd*%
%TO.N,1 3V3*%
X88950000Y-114550000D03*
%TD*%
D10*
%TO.P,U1,1,Vddio*%
%TO.N,1 3V3*%
X88687500Y-103062500D03*
%TO.P,U1,2,SCK*%
%TO.N,5 SCK*%
X88687500Y-103562500D03*
D11*
%TO.P,U1,3,Vss*%
%TO.N,2 GND*%
X88950000Y-104075000D03*
%TO.P,U1,4,SDI*%
%TO.N,6 SDI*%
X89450000Y-104075000D03*
%TO.P,U1,5,SDO*%
%TO.N,7 SDO*%
X89950000Y-104075000D03*
D10*
%TO.P,U1,6,CSB*%
%TO.N,3 CSB1*%
X90212500Y-103562500D03*
%TO.P,U1,7,INT*%
%TO.N,2 GND*%
X90212500Y-103062500D03*
D11*
%TO.P,U1,8,Vss*%
X89950000Y-102550000D03*
%TO.P,U1,9,Vss*%
X89450000Y-102550000D03*
%TO.P,U1,10,Vdd*%
%TO.N,1 3V3*%
X88950000Y-102550000D03*
%TD*%
D10*
%TO.P,U1,1,Vddio*%
%TO.N,1 3V3*%
X82687500Y-109062500D03*
%TO.P,U1,2,SCK*%
%TO.N,5 SCK*%
X82687500Y-109562500D03*
D11*
%TO.P,U1,3,Vss*%
%TO.N,2 GND*%
X82950000Y-110075000D03*
%TO.P,U1,4,SDI*%
%TO.N,6 SDI*%
X83450000Y-110075000D03*
%TO.P,U1,5,SDO*%
%TO.N,7 SDO*%
X83950000Y-110075000D03*
D10*
%TO.P,U1,6,CSB*%
%TO.N,3 CSB1*%
X84212500Y-109562500D03*
%TO.P,U1,7,INT*%
%TO.N,2 GND*%
X84212500Y-109062500D03*
D11*
%TO.P,U1,8,Vss*%
X83950000Y-108550000D03*
%TO.P,U1,9,Vss*%
X83450000Y-108550000D03*
%TO.P,U1,10,Vdd*%
%TO.N,1 3V3*%
X82950000Y-108550000D03*
%TD*%
D12*
%TO.P,J1,1,Pin_1*%
%TO.N,1 3V3*%
X75550000Y-112000000D03*
D13*
%TO.P,J1,2,Pin_2*%
%TO.N,5 SCK*%
X76200000Y-112000000D03*
%TO.P,J1,3,Pin_3*%
%TO.N,2 GND*%
X76850000Y-112000000D03*
%TO.P,J1,4,Pin_4*%
%TO.N,6 SDI*%
X77500000Y-112000000D03*
%TO.P,J1,5,Pin_5*%
%TO.N,7 SDO*%
X78150000Y-112000000D03*
%TO.P,J1,6,Pin_6*%
%TO.N,3 CSB1*%
X78800000Y-112000000D03*
%TO.P,J1,7,Pin_7*%
%TO.N,2 GND*%
X79450000Y-112000000D03*
%TD*%
D10*
%TO.P,U1,1,Vddio*%
%TO.N,1 3V3*%
X76687500Y-109062500D03*
%TO.P,U1,2,SCK*%
%TO.N,5 SCK*%
X76687500Y-109562500D03*
D11*
%TO.P,U1,3,Vss*%
%TO.N,2 GND*%
X76950000Y-110075000D03*
%TO.P,U1,4,SDI*%
%TO.N,6 SDI*%
X77450000Y-110075000D03*
%TO.P,U1,5,SDO*%
%TO.N,7 SDO*%
X77950000Y-110075000D03*
D10*
%TO.P,U1,6,CSB*%
%TO.N,3 CSB1*%
X78212500Y-109562500D03*
%TO.P,U1,7,INT*%
%TO.N,2 GND*%
X78212500Y-109062500D03*
D11*
%TO.P,U1,8,Vss*%
X77950000Y-108550000D03*
%TO.P,U1,9,Vss*%
X77450000Y-108550000D03*
%TO.P,U1,10,Vdd*%
%TO.N,1 3V3*%
X76950000Y-108550000D03*
%TD*%
D10*
%TO.P,U1,1,Vddio*%
%TO.N,1 3V3*%
X82687500Y-103062500D03*
%TO.P,U1,2,SCK*%
%TO.N,5 SCK*%
X82687500Y-103562500D03*
D11*
%TO.P,U1,3,Vss*%
%TO.N,2 GND*%
X82950000Y-104075000D03*
%TO.P,U1,4,SDI*%
%TO.N,6 SDI*%
X83450000Y-104075000D03*
%TO.P,U1,5,SDO*%
%TO.N,7 SDO*%
X83950000Y-104075000D03*
D10*
%TO.P,U1,6,CSB*%
%TO.N,3 CSB1*%
X84212500Y-103562500D03*
%TO.P,U1,7,INT*%
%TO.N,2 GND*%
X84212500Y-103062500D03*
D11*
%TO.P,U1,8,Vss*%
X83950000Y-102550000D03*
%TO.P,U1,9,Vss*%
X83450000Y-102550000D03*
%TO.P,U1,10,Vdd*%
%TO.N,1 3V3*%
X82950000Y-102550000D03*
%TD*%
D12*
%TO.P,J1,1,Pin_1*%
%TO.N,1 3V3*%
X81550000Y-112000000D03*
D13*
%TO.P,J1,2,Pin_2*%
%TO.N,5 SCK*%
X82200000Y-112000000D03*
%TO.P,J1,3,Pin_3*%
%TO.N,2 GND*%
X82850000Y-112000000D03*
%TO.P,J1,4,Pin_4*%
%TO.N,6 SDI*%
X83500000Y-112000000D03*
%TO.P,J1,5,Pin_5*%
%TO.N,7 SDO*%
X84150000Y-112000000D03*
%TO.P,J1,6,Pin_6*%
%TO.N,3 CSB1*%
X84800000Y-112000000D03*
%TO.P,J1,7,Pin_7*%
%TO.N,2 GND*%
X85450000Y-112000000D03*
%TD*%
D12*
%TO.P,J1,1,Pin_1*%
%TO.N,1 3V3*%
X75550000Y-106000000D03*
D13*
%TO.P,J1,2,Pin_2*%
%TO.N,5 SCK*%
X76200000Y-106000000D03*
%TO.P,J1,3,Pin_3*%
%TO.N,2 GND*%
X76850000Y-106000000D03*
%TO.P,J1,4,Pin_4*%
%TO.N,6 SDI*%
X77500000Y-106000000D03*
%TO.P,J1,5,Pin_5*%
%TO.N,7 SDO*%
X78150000Y-106000000D03*
%TO.P,J1,6,Pin_6*%
%TO.N,3 CSB1*%
X78800000Y-106000000D03*
%TO.P,J1,7,Pin_7*%
%TO.N,2 GND*%
X79450000Y-106000000D03*
%TD*%
D12*
%TO.P,J1,1,Pin_1*%
%TO.N,1 3V3*%
X81550000Y-106000000D03*
D13*
%TO.P,J1,2,Pin_2*%
%TO.N,5 SCK*%
X82200000Y-106000000D03*
%TO.P,J1,3,Pin_3*%
%TO.N,2 GND*%
X82850000Y-106000000D03*
%TO.P,J1,4,Pin_4*%
%TO.N,6 SDI*%
X83500000Y-106000000D03*
%TO.P,J1,5,Pin_5*%
%TO.N,7 SDO*%
X84150000Y-106000000D03*
%TO.P,J1,6,Pin_6*%
%TO.N,3 CSB1*%
X84800000Y-106000000D03*
%TO.P,J1,7,Pin_7*%
%TO.N,2 GND*%
X85450000Y-106000000D03*
%TD*%
D10*
%TO.P,U1,1,Vddio*%
%TO.N,1 3V3*%
X76687500Y-103062500D03*
%TO.P,U1,2,SCK*%
%TO.N,5 SCK*%
X76687500Y-103562500D03*
D11*
%TO.P,U1,3,Vss*%
%TO.N,2 GND*%
X76950000Y-104075000D03*
%TO.P,U1,4,SDI*%
%TO.N,6 SDI*%
X77450000Y-104075000D03*
%TO.P,U1,5,SDO*%
%TO.N,7 SDO*%
X77950000Y-104075000D03*
D10*
%TO.P,U1,6,CSB*%
%TO.N,3 CSB1*%
X78212500Y-103562500D03*
%TO.P,U1,7,INT*%
%TO.N,2 GND*%
X78212500Y-103062500D03*
D11*
%TO.P,U1,8,Vss*%
X77950000Y-102550000D03*
%TO.P,U1,9,Vss*%
X77450000Y-102550000D03*
%TO.P,U1,10,Vdd*%
%TO.N,1 3V3*%
X76950000Y-102550000D03*
%TD*%
D10*
%TO.P,U1,1,Vddio*%
%TO.N,1 3V3*%
X82687500Y-115062500D03*
%TO.P,U1,2,SCK*%
%TO.N,5 SCK*%
X82687500Y-115562500D03*
D11*
%TO.P,U1,3,Vss*%
%TO.N,2 GND*%
X82950000Y-116075000D03*
%TO.P,U1,4,SDI*%
%TO.N,6 SDI*%
X83450000Y-116075000D03*
%TO.P,U1,5,SDO*%
%TO.N,7 SDO*%
X83950000Y-116075000D03*
D10*
%TO.P,U1,6,CSB*%
%TO.N,3 CSB1*%
X84212500Y-115562500D03*
%TO.P,U1,7,INT*%
%TO.N,2 GND*%
X84212500Y-115062500D03*
D11*
%TO.P,U1,8,Vss*%
X83950000Y-114550000D03*
%TO.P,U1,9,Vss*%
X83450000Y-114550000D03*
%TO.P,U1,10,Vdd*%
%TO.N,1 3V3*%
X82950000Y-114550000D03*
%TD*%
D12*
%TO.P,J1,1,Pin_1*%
%TO.N,1 3V3*%
X75550000Y-118000000D03*
D13*
%TO.P,J1,2,Pin_2*%
%TO.N,5 SCK*%
X76200000Y-118000000D03*
%TO.P,J1,3,Pin_3*%
%TO.N,2 GND*%
X76850000Y-118000000D03*
%TO.P,J1,4,Pin_4*%
%TO.N,6 SDI*%
X77500000Y-118000000D03*
%TO.P,J1,5,Pin_5*%
%TO.N,7 SDO*%
X78150000Y-118000000D03*
%TO.P,J1,6,Pin_6*%
%TO.N,3 CSB1*%
X78800000Y-118000000D03*
%TO.P,J1,7,Pin_7*%
%TO.N,2 GND*%
X79450000Y-118000000D03*
%TD*%
D10*
%TO.P,U1,1,Vddio*%
%TO.N,1 3V3*%
X76687500Y-115062500D03*
%TO.P,U1,2,SCK*%
%TO.N,5 SCK*%
X76687500Y-115562500D03*
D11*
%TO.P,U1,3,Vss*%
%TO.N,2 GND*%
X76950000Y-116075000D03*
%TO.P,U1,4,SDI*%
%TO.N,6 SDI*%
X77450000Y-116075000D03*
%TO.P,U1,5,SDO*%
%TO.N,7 SDO*%
X77950000Y-116075000D03*
D10*
%TO.P,U1,6,CSB*%
%TO.N,3 CSB1*%
X78212500Y-115562500D03*
%TO.P,U1,7,INT*%
%TO.N,2 GND*%
X78212500Y-115062500D03*
D11*
%TO.P,U1,8,Vss*%
X77950000Y-114550000D03*
%TO.P,U1,9,Vss*%
X77450000Y-114550000D03*
%TO.P,U1,10,Vdd*%
%TO.N,1 3V3*%
X76950000Y-114550000D03*
%TD*%
D12*
%TO.P,J1,1,Pin_1*%
%TO.N,1 3V3*%
X81550000Y-118000000D03*
D13*
%TO.P,J1,2,Pin_2*%
%TO.N,5 SCK*%
X82200000Y-118000000D03*
%TO.P,J1,3,Pin_3*%
%TO.N,2 GND*%
X82850000Y-118000000D03*
%TO.P,J1,4,Pin_4*%
%TO.N,6 SDI*%
X83500000Y-118000000D03*
%TO.P,J1,5,Pin_5*%
%TO.N,7 SDO*%
X84150000Y-118000000D03*
%TO.P,J1,6,Pin_6*%
%TO.N,3 CSB1*%
X84800000Y-118000000D03*
%TO.P,J1,7,Pin_7*%
%TO.N,2 GND*%
X85450000Y-118000000D03*
%TD*%
D12*
%TO.P,J1,1,Pin_1*%
%TO.N,1 3V3*%
X81550000Y-124000000D03*
D13*
%TO.P,J1,2,Pin_2*%
%TO.N,5 SCK*%
X82200000Y-124000000D03*
%TO.P,J1,3,Pin_3*%
%TO.N,2 GND*%
X82850000Y-124000000D03*
%TO.P,J1,4,Pin_4*%
%TO.N,6 SDI*%
X83500000Y-124000000D03*
%TO.P,J1,5,Pin_5*%
%TO.N,7 SDO*%
X84150000Y-124000000D03*
%TO.P,J1,6,Pin_6*%
%TO.N,3 CSB1*%
X84800000Y-124000000D03*
%TO.P,J1,7,Pin_7*%
%TO.N,2 GND*%
X85450000Y-124000000D03*
%TD*%
D10*
%TO.P,U1,1,Vddio*%
%TO.N,1 3V3*%
X82687500Y-121062500D03*
%TO.P,U1,2,SCK*%
%TO.N,5 SCK*%
X82687500Y-121562500D03*
D11*
%TO.P,U1,3,Vss*%
%TO.N,2 GND*%
X82950000Y-122075000D03*
%TO.P,U1,4,SDI*%
%TO.N,6 SDI*%
X83450000Y-122075000D03*
%TO.P,U1,5,SDO*%
%TO.N,7 SDO*%
X83950000Y-122075000D03*
D10*
%TO.P,U1,6,CSB*%
%TO.N,3 CSB1*%
X84212500Y-121562500D03*
%TO.P,U1,7,INT*%
%TO.N,2 GND*%
X84212500Y-121062500D03*
D11*
%TO.P,U1,8,Vss*%
X83950000Y-120550000D03*
%TO.P,U1,9,Vss*%
X83450000Y-120550000D03*
%TO.P,U1,10,Vdd*%
%TO.N,1 3V3*%
X82950000Y-120550000D03*
%TD*%
D10*
%TO.P,U1,1,Vddio*%
%TO.N,1 3V3*%
X76687500Y-121062500D03*
%TO.P,U1,2,SCK*%
%TO.N,5 SCK*%
X76687500Y-121562500D03*
D11*
%TO.P,U1,3,Vss*%
%TO.N,2 GND*%
X76950000Y-122075000D03*
%TO.P,U1,4,SDI*%
%TO.N,6 SDI*%
X77450000Y-122075000D03*
%TO.P,U1,5,SDO*%
%TO.N,7 SDO*%
X77950000Y-122075000D03*
D10*
%TO.P,U1,6,CSB*%
%TO.N,3 CSB1*%
X78212500Y-121562500D03*
%TO.P,U1,7,INT*%
%TO.N,2 GND*%
X78212500Y-121062500D03*
D11*
%TO.P,U1,8,Vss*%
X77950000Y-120550000D03*
%TO.P,U1,9,Vss*%
X77450000Y-120550000D03*
%TO.P,U1,10,Vdd*%
%TO.N,1 3V3*%
X76950000Y-120550000D03*
%TD*%
D12*
%TO.P,J1,1,Pin_1*%
%TO.N,1 3V3*%
X75550000Y-124000000D03*
D13*
%TO.P,J1,2,Pin_2*%
%TO.N,5 SCK*%
X76200000Y-124000000D03*
%TO.P,J1,3,Pin_3*%
%TO.N,2 GND*%
X76850000Y-124000000D03*
%TO.P,J1,4,Pin_4*%
%TO.N,6 SDI*%
X77500000Y-124000000D03*
%TO.P,J1,5,Pin_5*%
%TO.N,7 SDO*%
X78150000Y-124000000D03*
%TO.P,J1,6,Pin_6*%
%TO.N,3 CSB1*%
X78800000Y-124000000D03*
%TO.P,J1,7,Pin_7*%
%TO.N,2 GND*%
X79450000Y-124000000D03*
%TD*%
D14*
%TO.N,2 GND*%
X97350000Y-108850000D03*
X97350000Y-102850000D03*
%TO.N,1 3V3*%
X93550000Y-102550000D03*
%TO.N,2 GND*%
X97350000Y-120850000D03*
X91350000Y-114850000D03*
%TO.N,1 3V3*%
X87550000Y-102550000D03*
X93550000Y-108550000D03*
X87550000Y-108550000D03*
%TO.N,2 GND*%
X91350000Y-108850000D03*
X97350000Y-114850000D03*
%TO.N,1 3V3*%
X93550000Y-114550000D03*
X87550000Y-114550000D03*
X93550000Y-120550000D03*
%TO.N,2 GND*%
X91350000Y-102850000D03*
%TO.N,1 3V3*%
X87550000Y-120550000D03*
%TO.N,2 GND*%
X91350000Y-120850000D03*
X85350000Y-108850000D03*
X79350000Y-102850000D03*
X85350000Y-102850000D03*
%TO.N,1 3V3*%
X81550000Y-102550000D03*
X75550000Y-102550000D03*
X81550000Y-108550000D03*
X75550000Y-108550000D03*
%TO.N,2 GND*%
X79350000Y-108850000D03*
X85350000Y-114850000D03*
%TO.N,1 3V3*%
X81550000Y-114550000D03*
X75550000Y-114550000D03*
%TO.N,2 GND*%
X79350000Y-114850000D03*
%TO.N,1 3V3*%
X81550000Y-120550000D03*
%TO.N,2 GND*%
X85350000Y-120850000D03*
X79350000Y-120850000D03*
%TO.N,1 3V3*%
X75550000Y-120550000D03*
%TD*%
D15*
%TO.N,2 GND*%
X88950000Y-117900000D02*
X88850000Y-118000000D01*
%TO.N,7 SDO*%
X90150000Y-116275000D02*
X90150000Y-118000000D01*
%TO.N,1 3V3*%
X88687500Y-115062500D02*
X88424568Y-115062500D01*
X88687500Y-114812500D02*
X88950000Y-114550000D01*
%TO.N,2 GND*%
X91450000Y-116400000D02*
X91450000Y-114950000D01*
%TO.N,3 CSB1*%
X90212500Y-115562500D02*
X90800000Y-116150000D01*
%TO.N,1 3V3*%
X88424568Y-115062500D02*
X87550000Y-115937068D01*
X88687500Y-115062500D02*
X88687500Y-114812500D01*
%TO.N,2 GND*%
X89950000Y-114550000D02*
X89950000Y-114800000D01*
X90212500Y-115062500D02*
X90475432Y-115062500D01*
X91450000Y-114950000D02*
X91350000Y-114850000D01*
%TO.N,6 SDI*%
X89450000Y-117950000D02*
X89500000Y-118000000D01*
%TO.N,7 SDO*%
X89950000Y-116075000D02*
X90150000Y-116275000D01*
%TO.N,2 GND*%
X91450000Y-116400000D02*
X91450000Y-118000000D01*
%TO.N,6 SDI*%
X89450000Y-116075000D02*
X89450000Y-117950000D01*
%TO.N,2 GND*%
X90475432Y-115062500D02*
X91450000Y-116037068D01*
%TO.N,3 CSB1*%
X90800000Y-116150000D02*
X90800000Y-118000000D01*
%TO.N,5 SCK*%
X88687500Y-115562500D02*
X88200000Y-116050000D01*
X88200000Y-116050000D02*
X88200000Y-118000000D01*
%TO.N,2 GND*%
X88950000Y-116075000D02*
X88950000Y-117900000D01*
X91450000Y-116037068D02*
X91450000Y-116400000D01*
X89950000Y-114800000D02*
X90212500Y-115062500D01*
%TO.N,1 3V3*%
X94687500Y-120812500D02*
X94950000Y-120550000D01*
%TO.N,2 GND*%
X95950000Y-120550000D02*
X95950000Y-120800000D01*
%TO.N,6 SDI*%
X95450000Y-122075000D02*
X95450000Y-123950000D01*
%TO.N,2 GND*%
X96475432Y-121062500D02*
X97450000Y-122037068D01*
X95450000Y-120550000D02*
X95950000Y-120550000D01*
%TO.N,5 SCK*%
X94200000Y-122050000D02*
X94200000Y-124000000D01*
%TO.N,1 3V3*%
X94424568Y-121062500D02*
X93550000Y-121937068D01*
%TO.N,2 GND*%
X97450000Y-122400000D02*
X97450000Y-120950000D01*
%TO.N,1 3V3*%
X94687500Y-121062500D02*
X94424568Y-121062500D01*
%TO.N,7 SDO*%
X95950000Y-122075000D02*
X96150000Y-122275000D01*
%TO.N,2 GND*%
X94950000Y-122075000D02*
X94950000Y-123900000D01*
X95950000Y-120800000D02*
X96212500Y-121062500D01*
X94950000Y-123900000D02*
X94850000Y-124000000D01*
%TO.N,5 SCK*%
X94687500Y-121562500D02*
X94200000Y-122050000D01*
%TO.N,2 GND*%
X97450000Y-122400000D02*
X97450000Y-124000000D01*
%TO.N,1 3V3*%
X94687500Y-121062500D02*
X94687500Y-120812500D01*
%TO.N,2 GND*%
X96212500Y-121062500D02*
X96475432Y-121062500D01*
%TO.N,3 CSB1*%
X96212500Y-121562500D02*
X96800000Y-122150000D01*
%TO.N,6 SDI*%
X95450000Y-123950000D02*
X95500000Y-124000000D01*
%TO.N,1 3V3*%
X93550000Y-121937068D02*
X93550000Y-124000000D01*
%TO.N,2 GND*%
X97450000Y-122037068D02*
X97450000Y-122400000D01*
X97450000Y-120950000D02*
X97350000Y-120850000D01*
%TO.N,1 3V3*%
X93550000Y-121937068D02*
X93550000Y-120550000D01*
%TO.N,3 CSB1*%
X96800000Y-122150000D02*
X96800000Y-124000000D01*
%TO.N,7 SDO*%
X96150000Y-122275000D02*
X96150000Y-124000000D01*
%TO.N,2 GND*%
X89450000Y-114550000D02*
X89950000Y-114550000D01*
X97450000Y-116400000D02*
X97450000Y-114950000D01*
%TO.N,3 CSB1*%
X96212500Y-115562500D02*
X96800000Y-116150000D01*
%TO.N,2 GND*%
X97450000Y-116400000D02*
X97450000Y-118000000D01*
%TO.N,1 3V3*%
X94687500Y-115062500D02*
X94424568Y-115062500D01*
%TO.N,2 GND*%
X95450000Y-114550000D02*
X95950000Y-114550000D01*
X97450000Y-114950000D02*
X97350000Y-114850000D01*
X94950000Y-116075000D02*
X94950000Y-117900000D01*
X96212500Y-115062500D02*
X96475432Y-115062500D01*
%TO.N,1 3V3*%
X94687500Y-115062500D02*
X94687500Y-114812500D01*
%TO.N,5 SCK*%
X94687500Y-115562500D02*
X94200000Y-116050000D01*
%TO.N,1 3V3*%
X87550000Y-115937068D02*
X87550000Y-114550000D01*
%TO.N,6 SDI*%
X95450000Y-116075000D02*
X95450000Y-117950000D01*
%TO.N,1 3V3*%
X94687500Y-114812500D02*
X94950000Y-114550000D01*
X93550000Y-115937068D02*
X93550000Y-114550000D01*
%TO.N,2 GND*%
X97450000Y-116037068D02*
X97450000Y-116400000D01*
%TO.N,3 CSB1*%
X96800000Y-116150000D02*
X96800000Y-118000000D01*
%TO.N,2 GND*%
X95950000Y-114550000D02*
X95950000Y-114800000D01*
%TO.N,1 3V3*%
X87550000Y-115937068D02*
X87550000Y-118000000D01*
%TO.N,5 SCK*%
X94200000Y-116050000D02*
X94200000Y-118000000D01*
%TO.N,2 GND*%
X96475432Y-115062500D02*
X97450000Y-116037068D01*
%TO.N,1 3V3*%
X94424568Y-115062500D02*
X93550000Y-115937068D01*
%TO.N,6 SDI*%
X95450000Y-117950000D02*
X95500000Y-118000000D01*
%TO.N,7 SDO*%
X96150000Y-116275000D02*
X96150000Y-118000000D01*
%TO.N,2 GND*%
X95950000Y-114800000D02*
X96212500Y-115062500D01*
X94950000Y-117900000D02*
X94850000Y-118000000D01*
%TO.N,1 3V3*%
X93550000Y-115937068D02*
X93550000Y-118000000D01*
%TO.N,7 SDO*%
X95950000Y-116075000D02*
X96150000Y-116275000D01*
%TO.N,1 3V3*%
X87550000Y-121937068D02*
X87550000Y-124000000D01*
X87550000Y-121937068D02*
X87550000Y-120550000D01*
%TO.N,6 SDI*%
X89450000Y-123950000D02*
X89500000Y-124000000D01*
%TO.N,1 3V3*%
X88424568Y-121062500D02*
X87550000Y-121937068D01*
%TO.N,7 SDO*%
X90150000Y-122275000D02*
X90150000Y-124000000D01*
X89950000Y-122075000D02*
X90150000Y-122275000D01*
%TO.N,1 3V3*%
X88687500Y-121062500D02*
X88687500Y-120812500D01*
X88687500Y-121062500D02*
X88424568Y-121062500D01*
X88687500Y-120812500D02*
X88950000Y-120550000D01*
%TO.N,2 GND*%
X90212500Y-121062500D02*
X90475432Y-121062500D01*
X91450000Y-122400000D02*
X91450000Y-124000000D01*
X88950000Y-123900000D02*
X88850000Y-124000000D01*
X91450000Y-120950000D02*
X91350000Y-120850000D01*
X89950000Y-120550000D02*
X89950000Y-120800000D01*
X91450000Y-122400000D02*
X91450000Y-120950000D01*
%TO.N,3 CSB1*%
X90212500Y-121562500D02*
X90800000Y-122150000D01*
%TO.N,2 GND*%
X89950000Y-120800000D02*
X90212500Y-121062500D01*
%TO.N,6 SDI*%
X89450000Y-122075000D02*
X89450000Y-123950000D01*
%TO.N,2 GND*%
X90475432Y-121062500D02*
X91450000Y-122037068D01*
%TO.N,5 SCK*%
X88200000Y-122050000D02*
X88200000Y-124000000D01*
%TO.N,2 GND*%
X88950000Y-122075000D02*
X88950000Y-123900000D01*
%TO.N,3 CSB1*%
X90800000Y-122150000D02*
X90800000Y-124000000D01*
%TO.N,2 GND*%
X91450000Y-122037068D02*
X91450000Y-122400000D01*
%TO.N,5 SCK*%
X88687500Y-121562500D02*
X88200000Y-122050000D01*
%TO.N,2 GND*%
X89450000Y-120550000D02*
X89950000Y-120550000D01*
%TO.N,1 3V3*%
X87550000Y-103937068D02*
X87550000Y-106000000D01*
%TO.N,2 GND*%
X94950000Y-104075000D02*
X94950000Y-105900000D01*
%TO.N,1 3V3*%
X87550000Y-109937068D02*
X87550000Y-112000000D01*
%TO.N,2 GND*%
X95950000Y-102550000D02*
X95950000Y-102800000D01*
%TO.N,5 SCK*%
X94200000Y-104050000D02*
X94200000Y-106000000D01*
%TO.N,2 GND*%
X97450000Y-104400000D02*
X97450000Y-106000000D01*
%TO.N,1 3V3*%
X94687500Y-103062500D02*
X94424568Y-103062500D01*
%TO.N,2 GND*%
X95450000Y-102550000D02*
X95950000Y-102550000D01*
%TO.N,5 SCK*%
X94687500Y-103562500D02*
X94200000Y-104050000D01*
%TO.N,1 3V3*%
X87550000Y-103937068D02*
X87550000Y-102550000D01*
%TO.N,6 SDI*%
X95450000Y-105950000D02*
X95500000Y-106000000D01*
X95450000Y-104075000D02*
X95450000Y-105950000D01*
%TO.N,7 SDO*%
X96150000Y-104275000D02*
X96150000Y-106000000D01*
%TO.N,1 3V3*%
X88424568Y-109062500D02*
X87550000Y-109937068D01*
X88687500Y-108812500D02*
X88950000Y-108550000D01*
%TO.N,7 SDO*%
X90150000Y-110275000D02*
X90150000Y-112000000D01*
%TO.N,2 GND*%
X90212500Y-109062500D02*
X90475432Y-109062500D01*
%TO.N,1 3V3*%
X88687500Y-109062500D02*
X88687500Y-108812500D01*
X93550000Y-103937068D02*
X93550000Y-102550000D01*
%TO.N,2 GND*%
X96475432Y-103062500D02*
X97450000Y-104037068D01*
X91450000Y-108950000D02*
X91350000Y-108850000D01*
%TO.N,1 3V3*%
X88687500Y-109062500D02*
X88424568Y-109062500D01*
%TO.N,3 CSB1*%
X96800000Y-110150000D02*
X96800000Y-112000000D01*
%TO.N,2 GND*%
X95950000Y-102800000D02*
X96212500Y-103062500D01*
%TO.N,1 3V3*%
X93550000Y-103937068D02*
X93550000Y-106000000D01*
%TO.N,3 CSB1*%
X96212500Y-103562500D02*
X96800000Y-104150000D01*
%TO.N,1 3V3*%
X94687500Y-103062500D02*
X94687500Y-102812500D01*
%TO.N,3 CSB1*%
X96800000Y-104150000D02*
X96800000Y-106000000D01*
%TO.N,2 GND*%
X91450000Y-110400000D02*
X91450000Y-112000000D01*
%TO.N,7 SDO*%
X95950000Y-104075000D02*
X96150000Y-104275000D01*
%TO.N,2 GND*%
X97450000Y-104400000D02*
X97450000Y-102950000D01*
%TO.N,1 3V3*%
X94687500Y-102812500D02*
X94950000Y-102550000D01*
%TO.N,2 GND*%
X97450000Y-108950000D02*
X97350000Y-108850000D01*
%TO.N,1 3V3*%
X93550000Y-109937068D02*
X93550000Y-108550000D01*
%TO.N,7 SDO*%
X96150000Y-110275000D02*
X96150000Y-112000000D01*
%TO.N,2 GND*%
X94950000Y-105900000D02*
X94850000Y-106000000D01*
X88950000Y-111900000D02*
X88850000Y-112000000D01*
X97450000Y-102950000D02*
X97350000Y-102850000D01*
%TO.N,6 SDI*%
X89450000Y-111950000D02*
X89500000Y-112000000D01*
%TO.N,2 GND*%
X89950000Y-108550000D02*
X89950000Y-108800000D01*
X89450000Y-102550000D02*
X89950000Y-102550000D01*
X96212500Y-103062500D02*
X96475432Y-103062500D01*
%TO.N,1 3V3*%
X94424568Y-103062500D02*
X93550000Y-103937068D01*
X87550000Y-109937068D02*
X87550000Y-108550000D01*
%TO.N,2 GND*%
X97450000Y-104037068D02*
X97450000Y-104400000D01*
%TO.N,7 SDO*%
X89950000Y-110075000D02*
X90150000Y-110275000D01*
%TO.N,2 GND*%
X91450000Y-110037068D02*
X91450000Y-110400000D01*
X89950000Y-108800000D02*
X90212500Y-109062500D01*
%TO.N,5 SCK*%
X88687500Y-109562500D02*
X88200000Y-110050000D01*
%TO.N,2 GND*%
X91450000Y-110400000D02*
X91450000Y-108950000D01*
%TO.N,3 CSB1*%
X90212500Y-109562500D02*
X90800000Y-110150000D01*
%TO.N,6 SDI*%
X89450000Y-110075000D02*
X89450000Y-111950000D01*
%TO.N,3 CSB1*%
X90800000Y-110150000D02*
X90800000Y-112000000D01*
%TO.N,2 GND*%
X90475432Y-109062500D02*
X91450000Y-110037068D01*
%TO.N,5 SCK*%
X88200000Y-110050000D02*
X88200000Y-112000000D01*
%TO.N,2 GND*%
X88950000Y-110075000D02*
X88950000Y-111900000D01*
X89450000Y-108550000D02*
X89950000Y-108550000D01*
%TO.N,7 SDO*%
X95950000Y-110075000D02*
X96150000Y-110275000D01*
%TO.N,2 GND*%
X96475432Y-109062500D02*
X97450000Y-110037068D01*
%TO.N,5 SCK*%
X94200000Y-110050000D02*
X94200000Y-112000000D01*
%TO.N,2 GND*%
X90475432Y-103062500D02*
X91450000Y-104037068D01*
X96212500Y-109062500D02*
X96475432Y-109062500D01*
%TO.N,6 SDI*%
X89450000Y-105950000D02*
X89500000Y-106000000D01*
%TO.N,2 GND*%
X91450000Y-104400000D02*
X91450000Y-102950000D01*
X90212500Y-103062500D02*
X90475432Y-103062500D01*
%TO.N,1 3V3*%
X94687500Y-109062500D02*
X94424568Y-109062500D01*
%TO.N,2 GND*%
X91450000Y-102950000D02*
X91350000Y-102850000D01*
%TO.N,7 SDO*%
X89950000Y-104075000D02*
X90150000Y-104275000D01*
%TO.N,1 3V3*%
X94687500Y-108812500D02*
X94950000Y-108550000D01*
%TO.N,2 GND*%
X95950000Y-108800000D02*
X96212500Y-109062500D01*
%TO.N,6 SDI*%
X95450000Y-111950000D02*
X95500000Y-112000000D01*
%TO.N,2 GND*%
X95450000Y-108550000D02*
X95950000Y-108550000D01*
X97450000Y-110400000D02*
X97450000Y-108950000D01*
%TO.N,1 3V3*%
X94687500Y-109062500D02*
X94687500Y-108812500D01*
X88687500Y-102812500D02*
X88950000Y-102550000D01*
X88687500Y-103062500D02*
X88687500Y-102812500D01*
%TO.N,2 GND*%
X91450000Y-104037068D02*
X91450000Y-104400000D01*
%TO.N,5 SCK*%
X88687500Y-103562500D02*
X88200000Y-104050000D01*
%TO.N,2 GND*%
X88950000Y-104075000D02*
X88950000Y-105900000D01*
%TO.N,1 3V3*%
X88687500Y-103062500D02*
X88424568Y-103062500D01*
%TO.N,3 CSB1*%
X90800000Y-104150000D02*
X90800000Y-106000000D01*
%TO.N,2 GND*%
X97450000Y-110400000D02*
X97450000Y-112000000D01*
%TO.N,1 3V3*%
X94424568Y-109062500D02*
X93550000Y-109937068D01*
%TO.N,3 CSB1*%
X90212500Y-103562500D02*
X90800000Y-104150000D01*
%TO.N,6 SDI*%
X89450000Y-104075000D02*
X89450000Y-105950000D01*
%TO.N,2 GND*%
X95950000Y-108550000D02*
X95950000Y-108800000D01*
X94950000Y-111900000D02*
X94850000Y-112000000D01*
%TO.N,5 SCK*%
X94687500Y-109562500D02*
X94200000Y-110050000D01*
%TO.N,1 3V3*%
X93550000Y-109937068D02*
X93550000Y-112000000D01*
%TO.N,2 GND*%
X94950000Y-110075000D02*
X94950000Y-111900000D01*
%TO.N,1 3V3*%
X88424568Y-103062500D02*
X87550000Y-103937068D01*
%TO.N,6 SDI*%
X95450000Y-110075000D02*
X95450000Y-111950000D01*
%TO.N,2 GND*%
X89950000Y-102550000D02*
X89950000Y-102800000D01*
X88950000Y-105900000D02*
X88850000Y-106000000D01*
X91450000Y-104400000D02*
X91450000Y-106000000D01*
%TO.N,7 SDO*%
X90150000Y-104275000D02*
X90150000Y-106000000D01*
%TO.N,5 SCK*%
X88200000Y-104050000D02*
X88200000Y-106000000D01*
%TO.N,2 GND*%
X89950000Y-102800000D02*
X90212500Y-103062500D01*
%TO.N,3 CSB1*%
X96212500Y-109562500D02*
X96800000Y-110150000D01*
%TO.N,2 GND*%
X97450000Y-110037068D02*
X97450000Y-110400000D01*
X76950000Y-105900000D02*
X76850000Y-106000000D01*
%TO.N,7 SDO*%
X78150000Y-104275000D02*
X78150000Y-106000000D01*
%TO.N,1 3V3*%
X76687500Y-103062500D02*
X76424568Y-103062500D01*
X76687500Y-102812500D02*
X76950000Y-102550000D01*
%TO.N,2 GND*%
X79450000Y-104400000D02*
X79450000Y-102950000D01*
%TO.N,3 CSB1*%
X78212500Y-103562500D02*
X78800000Y-104150000D01*
%TO.N,1 3V3*%
X76424568Y-103062500D02*
X75550000Y-103937068D01*
X76687500Y-103062500D02*
X76687500Y-102812500D01*
%TO.N,2 GND*%
X77950000Y-102550000D02*
X77950000Y-102800000D01*
X78212500Y-103062500D02*
X78475432Y-103062500D01*
X79450000Y-102950000D02*
X79350000Y-102850000D01*
%TO.N,6 SDI*%
X77450000Y-105950000D02*
X77500000Y-106000000D01*
%TO.N,7 SDO*%
X77950000Y-104075000D02*
X78150000Y-104275000D01*
%TO.N,2 GND*%
X79450000Y-104400000D02*
X79450000Y-106000000D01*
%TO.N,6 SDI*%
X77450000Y-104075000D02*
X77450000Y-105950000D01*
%TO.N,2 GND*%
X78475432Y-103062500D02*
X79450000Y-104037068D01*
%TO.N,3 CSB1*%
X78800000Y-104150000D02*
X78800000Y-106000000D01*
%TO.N,5 SCK*%
X76687500Y-103562500D02*
X76200000Y-104050000D01*
X76200000Y-104050000D02*
X76200000Y-106000000D01*
%TO.N,2 GND*%
X76950000Y-104075000D02*
X76950000Y-105900000D01*
X79450000Y-104037068D02*
X79450000Y-104400000D01*
X77950000Y-102800000D02*
X78212500Y-103062500D01*
%TO.N,1 3V3*%
X82687500Y-108812500D02*
X82950000Y-108550000D01*
%TO.N,2 GND*%
X83950000Y-108550000D02*
X83950000Y-108800000D01*
%TO.N,6 SDI*%
X83450000Y-110075000D02*
X83450000Y-111950000D01*
%TO.N,2 GND*%
X84475432Y-109062500D02*
X85450000Y-110037068D01*
X83450000Y-108550000D02*
X83950000Y-108550000D01*
%TO.N,5 SCK*%
X82200000Y-110050000D02*
X82200000Y-112000000D01*
%TO.N,1 3V3*%
X82424568Y-109062500D02*
X81550000Y-109937068D01*
%TO.N,2 GND*%
X85450000Y-110400000D02*
X85450000Y-108950000D01*
%TO.N,1 3V3*%
X82687500Y-109062500D02*
X82424568Y-109062500D01*
%TO.N,7 SDO*%
X83950000Y-110075000D02*
X84150000Y-110275000D01*
%TO.N,2 GND*%
X82950000Y-110075000D02*
X82950000Y-111900000D01*
X83950000Y-108800000D02*
X84212500Y-109062500D01*
X82950000Y-111900000D02*
X82850000Y-112000000D01*
%TO.N,5 SCK*%
X82687500Y-109562500D02*
X82200000Y-110050000D01*
%TO.N,2 GND*%
X85450000Y-110400000D02*
X85450000Y-112000000D01*
%TO.N,1 3V3*%
X82687500Y-109062500D02*
X82687500Y-108812500D01*
%TO.N,2 GND*%
X84212500Y-109062500D02*
X84475432Y-109062500D01*
%TO.N,3 CSB1*%
X84212500Y-109562500D02*
X84800000Y-110150000D01*
%TO.N,6 SDI*%
X83450000Y-111950000D02*
X83500000Y-112000000D01*
%TO.N,1 3V3*%
X81550000Y-109937068D02*
X81550000Y-112000000D01*
%TO.N,2 GND*%
X85450000Y-110037068D02*
X85450000Y-110400000D01*
X85450000Y-108950000D02*
X85350000Y-108850000D01*
%TO.N,1 3V3*%
X81550000Y-109937068D02*
X81550000Y-108550000D01*
%TO.N,3 CSB1*%
X84800000Y-110150000D02*
X84800000Y-112000000D01*
%TO.N,7 SDO*%
X84150000Y-110275000D02*
X84150000Y-112000000D01*
%TO.N,2 GND*%
X77450000Y-102550000D02*
X77950000Y-102550000D01*
X85450000Y-104400000D02*
X85450000Y-102950000D01*
%TO.N,3 CSB1*%
X84212500Y-103562500D02*
X84800000Y-104150000D01*
%TO.N,2 GND*%
X85450000Y-104400000D02*
X85450000Y-106000000D01*
%TO.N,1 3V3*%
X82687500Y-103062500D02*
X82424568Y-103062500D01*
%TO.N,2 GND*%
X83450000Y-102550000D02*
X83950000Y-102550000D01*
X85450000Y-102950000D02*
X85350000Y-102850000D01*
X82950000Y-104075000D02*
X82950000Y-105900000D01*
X84212500Y-103062500D02*
X84475432Y-103062500D01*
%TO.N,1 3V3*%
X82687500Y-103062500D02*
X82687500Y-102812500D01*
%TO.N,5 SCK*%
X82687500Y-103562500D02*
X82200000Y-104050000D01*
%TO.N,1 3V3*%
X75550000Y-103937068D02*
X75550000Y-102550000D01*
%TO.N,6 SDI*%
X83450000Y-104075000D02*
X83450000Y-105950000D01*
%TO.N,1 3V3*%
X82687500Y-102812500D02*
X82950000Y-102550000D01*
X81550000Y-103937068D02*
X81550000Y-102550000D01*
%TO.N,2 GND*%
X85450000Y-104037068D02*
X85450000Y-104400000D01*
%TO.N,3 CSB1*%
X84800000Y-104150000D02*
X84800000Y-106000000D01*
%TO.N,2 GND*%
X83950000Y-102550000D02*
X83950000Y-102800000D01*
%TO.N,1 3V3*%
X75550000Y-103937068D02*
X75550000Y-106000000D01*
%TO.N,5 SCK*%
X82200000Y-104050000D02*
X82200000Y-106000000D01*
%TO.N,2 GND*%
X84475432Y-103062500D02*
X85450000Y-104037068D01*
%TO.N,1 3V3*%
X82424568Y-103062500D02*
X81550000Y-103937068D01*
%TO.N,6 SDI*%
X83450000Y-105950000D02*
X83500000Y-106000000D01*
%TO.N,7 SDO*%
X84150000Y-104275000D02*
X84150000Y-106000000D01*
%TO.N,2 GND*%
X83950000Y-102800000D02*
X84212500Y-103062500D01*
X82950000Y-105900000D02*
X82850000Y-106000000D01*
%TO.N,1 3V3*%
X81550000Y-103937068D02*
X81550000Y-106000000D01*
%TO.N,7 SDO*%
X83950000Y-104075000D02*
X84150000Y-104275000D01*
%TO.N,1 3V3*%
X75550000Y-109937068D02*
X75550000Y-112000000D01*
X75550000Y-109937068D02*
X75550000Y-108550000D01*
%TO.N,6 SDI*%
X77450000Y-111950000D02*
X77500000Y-112000000D01*
%TO.N,1 3V3*%
X76424568Y-109062500D02*
X75550000Y-109937068D01*
%TO.N,7 SDO*%
X78150000Y-110275000D02*
X78150000Y-112000000D01*
X77950000Y-110075000D02*
X78150000Y-110275000D01*
%TO.N,1 3V3*%
X76687500Y-109062500D02*
X76687500Y-108812500D01*
X76687500Y-109062500D02*
X76424568Y-109062500D01*
X76687500Y-108812500D02*
X76950000Y-108550000D01*
%TO.N,2 GND*%
X78212500Y-109062500D02*
X78475432Y-109062500D01*
X79450000Y-110400000D02*
X79450000Y-112000000D01*
X76950000Y-111900000D02*
X76850000Y-112000000D01*
X79450000Y-108950000D02*
X79350000Y-108850000D01*
X77950000Y-108550000D02*
X77950000Y-108800000D01*
X79450000Y-110400000D02*
X79450000Y-108950000D01*
%TO.N,3 CSB1*%
X78212500Y-109562500D02*
X78800000Y-110150000D01*
%TO.N,2 GND*%
X77950000Y-108800000D02*
X78212500Y-109062500D01*
%TO.N,6 SDI*%
X77450000Y-110075000D02*
X77450000Y-111950000D01*
%TO.N,2 GND*%
X78475432Y-109062500D02*
X79450000Y-110037068D01*
%TO.N,5 SCK*%
X76200000Y-110050000D02*
X76200000Y-112000000D01*
%TO.N,2 GND*%
X76950000Y-110075000D02*
X76950000Y-111900000D01*
%TO.N,3 CSB1*%
X78800000Y-110150000D02*
X78800000Y-112000000D01*
%TO.N,2 GND*%
X79450000Y-110037068D02*
X79450000Y-110400000D01*
%TO.N,5 SCK*%
X76687500Y-109562500D02*
X76200000Y-110050000D01*
%TO.N,2 GND*%
X77450000Y-108550000D02*
X77950000Y-108550000D01*
%TO.N,1 3V3*%
X82687500Y-114812500D02*
X82950000Y-114550000D01*
%TO.N,2 GND*%
X83950000Y-114550000D02*
X83950000Y-114800000D01*
%TO.N,6 SDI*%
X83450000Y-116075000D02*
X83450000Y-117950000D01*
%TO.N,2 GND*%
X84475432Y-115062500D02*
X85450000Y-116037068D01*
X83450000Y-114550000D02*
X83950000Y-114550000D01*
%TO.N,5 SCK*%
X82200000Y-116050000D02*
X82200000Y-118000000D01*
%TO.N,1 3V3*%
X82424568Y-115062500D02*
X81550000Y-115937068D01*
%TO.N,2 GND*%
X85450000Y-116400000D02*
X85450000Y-114950000D01*
%TO.N,1 3V3*%
X82687500Y-115062500D02*
X82424568Y-115062500D01*
%TO.N,7 SDO*%
X83950000Y-116075000D02*
X84150000Y-116275000D01*
%TO.N,2 GND*%
X82950000Y-116075000D02*
X82950000Y-117900000D01*
X83950000Y-114800000D02*
X84212500Y-115062500D01*
X82950000Y-117900000D02*
X82850000Y-118000000D01*
%TO.N,5 SCK*%
X82687500Y-115562500D02*
X82200000Y-116050000D01*
%TO.N,2 GND*%
X85450000Y-116400000D02*
X85450000Y-118000000D01*
%TO.N,1 3V3*%
X82687500Y-115062500D02*
X82687500Y-114812500D01*
%TO.N,2 GND*%
X84212500Y-115062500D02*
X84475432Y-115062500D01*
%TO.N,3 CSB1*%
X84212500Y-115562500D02*
X84800000Y-116150000D01*
%TO.N,6 SDI*%
X83450000Y-117950000D02*
X83500000Y-118000000D01*
%TO.N,1 3V3*%
X81550000Y-115937068D02*
X81550000Y-118000000D01*
%TO.N,2 GND*%
X85450000Y-116037068D02*
X85450000Y-116400000D01*
X85450000Y-114950000D02*
X85350000Y-114850000D01*
%TO.N,1 3V3*%
X81550000Y-115937068D02*
X81550000Y-114550000D01*
%TO.N,3 CSB1*%
X84800000Y-116150000D02*
X84800000Y-118000000D01*
%TO.N,7 SDO*%
X84150000Y-116275000D02*
X84150000Y-118000000D01*
%TO.N,1 3V3*%
X75550000Y-115937068D02*
X75550000Y-118000000D01*
X75550000Y-115937068D02*
X75550000Y-114550000D01*
%TO.N,6 SDI*%
X77450000Y-117950000D02*
X77500000Y-118000000D01*
%TO.N,1 3V3*%
X76424568Y-115062500D02*
X75550000Y-115937068D01*
%TO.N,7 SDO*%
X78150000Y-116275000D02*
X78150000Y-118000000D01*
X77950000Y-116075000D02*
X78150000Y-116275000D01*
%TO.N,1 3V3*%
X76687500Y-115062500D02*
X76687500Y-114812500D01*
X76687500Y-115062500D02*
X76424568Y-115062500D01*
X76687500Y-114812500D02*
X76950000Y-114550000D01*
%TO.N,2 GND*%
X78212500Y-115062500D02*
X78475432Y-115062500D01*
X79450000Y-116400000D02*
X79450000Y-118000000D01*
X76950000Y-117900000D02*
X76850000Y-118000000D01*
X79450000Y-114950000D02*
X79350000Y-114850000D01*
X77950000Y-114550000D02*
X77950000Y-114800000D01*
X79450000Y-116400000D02*
X79450000Y-114950000D01*
%TO.N,3 CSB1*%
X78212500Y-115562500D02*
X78800000Y-116150000D01*
%TO.N,2 GND*%
X77950000Y-114800000D02*
X78212500Y-115062500D01*
%TO.N,6 SDI*%
X77450000Y-116075000D02*
X77450000Y-117950000D01*
%TO.N,2 GND*%
X78475432Y-115062500D02*
X79450000Y-116037068D01*
%TO.N,5 SCK*%
X76200000Y-116050000D02*
X76200000Y-118000000D01*
%TO.N,2 GND*%
X76950000Y-116075000D02*
X76950000Y-117900000D01*
%TO.N,3 CSB1*%
X78800000Y-116150000D02*
X78800000Y-118000000D01*
%TO.N,2 GND*%
X79450000Y-116037068D02*
X79450000Y-116400000D01*
%TO.N,5 SCK*%
X76687500Y-115562500D02*
X76200000Y-116050000D01*
%TO.N,2 GND*%
X77450000Y-114550000D02*
X77950000Y-114550000D01*
%TO.N,1 3V3*%
X81550000Y-121937068D02*
X81550000Y-124000000D01*
X81550000Y-121937068D02*
X81550000Y-120550000D01*
%TO.N,6 SDI*%
X83450000Y-123950000D02*
X83500000Y-124000000D01*
%TO.N,1 3V3*%
X82424568Y-121062500D02*
X81550000Y-121937068D01*
%TO.N,7 SDO*%
X84150000Y-122275000D02*
X84150000Y-124000000D01*
X83950000Y-122075000D02*
X84150000Y-122275000D01*
%TO.N,1 3V3*%
X82687500Y-121062500D02*
X82687500Y-120812500D01*
X82687500Y-121062500D02*
X82424568Y-121062500D01*
X82687500Y-120812500D02*
X82950000Y-120550000D01*
%TO.N,2 GND*%
X84212500Y-121062500D02*
X84475432Y-121062500D01*
X85450000Y-122400000D02*
X85450000Y-124000000D01*
X82950000Y-123900000D02*
X82850000Y-124000000D01*
X85450000Y-120950000D02*
X85350000Y-120850000D01*
X83950000Y-120550000D02*
X83950000Y-120800000D01*
X85450000Y-122400000D02*
X85450000Y-120950000D01*
%TO.N,3 CSB1*%
X84212500Y-121562500D02*
X84800000Y-122150000D01*
%TO.N,2 GND*%
X83950000Y-120800000D02*
X84212500Y-121062500D01*
%TO.N,6 SDI*%
X83450000Y-122075000D02*
X83450000Y-123950000D01*
%TO.N,2 GND*%
X84475432Y-121062500D02*
X85450000Y-122037068D01*
%TO.N,5 SCK*%
X82200000Y-122050000D02*
X82200000Y-124000000D01*
%TO.N,2 GND*%
X82950000Y-122075000D02*
X82950000Y-123900000D01*
%TO.N,3 CSB1*%
X84800000Y-122150000D02*
X84800000Y-124000000D01*
%TO.N,2 GND*%
X85450000Y-122037068D02*
X85450000Y-122400000D01*
%TO.N,5 SCK*%
X82687500Y-121562500D02*
X82200000Y-122050000D01*
%TO.N,2 GND*%
X83450000Y-120550000D02*
X83950000Y-120550000D01*
%TO.N,6 SDI*%
X77450000Y-122075000D02*
X77450000Y-123950000D01*
X77450000Y-123950000D02*
X77500000Y-124000000D01*
%TO.N,3 CSB1*%
X78800000Y-122150000D02*
X78800000Y-124000000D01*
X78212500Y-121562500D02*
X78800000Y-122150000D01*
%TO.N,7 SDO*%
X77950000Y-122075000D02*
X78150000Y-122275000D01*
X78150000Y-122275000D02*
X78150000Y-124000000D01*
%TO.N,5 SCK*%
X76200000Y-122050000D02*
X76200000Y-124000000D01*
X76687500Y-121562500D02*
X76200000Y-122050000D01*
%TO.N,2 GND*%
X79450000Y-122400000D02*
X79450000Y-120950000D01*
X76950000Y-123900000D02*
X76850000Y-124000000D01*
X79450000Y-122037068D02*
X79450000Y-122400000D01*
X77950000Y-120550000D02*
X77950000Y-120800000D01*
X79450000Y-120950000D02*
X79350000Y-120850000D01*
X79450000Y-122400000D02*
X79450000Y-124000000D01*
X77450000Y-120550000D02*
X77950000Y-120550000D01*
X78212500Y-121062500D02*
X78475432Y-121062500D01*
X77950000Y-120800000D02*
X78212500Y-121062500D01*
X78475432Y-121062500D02*
X79450000Y-122037068D01*
X76950000Y-122075000D02*
X76950000Y-123900000D01*
%TO.N,1 3V3*%
X75550000Y-121937068D02*
X75550000Y-124000000D01*
X76687500Y-120812500D02*
X76950000Y-120550000D01*
X75550000Y-121937068D02*
X75550000Y-120550000D01*
X76687500Y-121062500D02*
X76424568Y-121062500D01*
X76687500Y-121062500D02*
X76687500Y-120812500D01*
X76424568Y-121062500D02*
X75550000Y-121937068D01*
%TD*%
M02*
