%TF.GenerationSoftware,KiCad,Pcbnew,8.0.2*%
%TF.CreationDate,2026-04-29T21:42:39+02:00*%
%TF.ProjectId,projektPanel,70726f6a-656b-4745-9061-6e656c2e6b69,rev?*%
%TF.SameCoordinates,Original*%
%TF.FileFunction,Profile,NP*%
%FSLAX46Y46*%
G04 Gerber Fmt 4.6, Leading zero omitted, Abs format (unit mm)*
G04 Created by KiCad (PCBNEW 8.0.2) date 2026-04-29 21:42:39*
%MOMM*%
%LPD*%
G01*
G04 APERTURE LIST*
%TA.AperFunction,Profile*%
%ADD10C,0.050000*%
%TD*%
G04 APERTURE END LIST*
D10*
X152000000Y-70450000D02*
X154000000Y-70450000D01*
X154000000Y-74450000D01*
X152000000Y-74450000D01*
X152000000Y-70450000D01*
X141000000Y-60950000D02*
X151000000Y-60950000D01*
X151000000Y-62950000D01*
X141000000Y-62950000D01*
X141000000Y-60950000D01*
X141000000Y-67950000D02*
X151000000Y-67950000D01*
X151000000Y-69950000D01*
X141000000Y-69950000D01*
X141000000Y-67950000D01*
X183000000Y-60950000D02*
X193000000Y-60950000D01*
X193000000Y-62950000D01*
X183000000Y-62950000D01*
X183000000Y-60950000D01*
X180000000Y-56450000D02*
X182000000Y-56450000D01*
X182000000Y-60450000D01*
X180000000Y-60450000D01*
X180000000Y-56450000D01*
X169000000Y-60950000D02*
X179000000Y-60950000D01*
X179000000Y-62950000D01*
X169000000Y-62950000D01*
X169000000Y-60950000D01*
X155000000Y-60950000D02*
X165000000Y-60950000D01*
X165000000Y-62950000D01*
X155000000Y-62950000D01*
X155000000Y-60950000D01*
X180000000Y-63450000D02*
X182000000Y-63450000D01*
X182000000Y-67450000D01*
X180000000Y-67450000D01*
X180000000Y-63450000D01*
X166000000Y-49450000D02*
X168000000Y-49450000D01*
X168000000Y-53450000D01*
X166000000Y-53450000D01*
X166000000Y-49450000D01*
X166000000Y-56450000D02*
X168000000Y-56450000D01*
X168000000Y-60450000D01*
X166000000Y-60450000D01*
X166000000Y-56450000D01*
X180000000Y-49450000D02*
X182000000Y-49450000D01*
X182000000Y-53450000D01*
X180000000Y-53450000D01*
X180000000Y-49450000D01*
X155000000Y-53950000D02*
X165000000Y-53950000D01*
X165000000Y-55950000D01*
X155000000Y-55950000D01*
X155000000Y-53950000D01*
X169000000Y-67950000D02*
X179000000Y-67950000D01*
X179000000Y-69950000D01*
X169000000Y-69950000D01*
X169000000Y-67950000D01*
X183000000Y-53950000D02*
X193000000Y-53950000D01*
X193000000Y-55950000D01*
X183000000Y-55950000D01*
X183000000Y-53950000D01*
X183000000Y-67950000D02*
X193000000Y-67950000D01*
X193000000Y-69950000D01*
X183000000Y-69950000D01*
X183000000Y-67950000D01*
X180000000Y-70450000D02*
X182000000Y-70450000D01*
X182000000Y-74450000D01*
X180000000Y-74450000D01*
X180000000Y-70450000D01*
X166000000Y-70450000D02*
X168000000Y-70450000D01*
X168000000Y-74450000D01*
X166000000Y-74450000D01*
X166000000Y-70450000D01*
X155000000Y-67950000D02*
X165000000Y-67950000D01*
X165000000Y-69950000D01*
X155000000Y-69950000D01*
X155000000Y-67950000D01*
X166000000Y-63450000D02*
X168000000Y-63450000D01*
X168000000Y-67450000D01*
X166000000Y-67450000D01*
X166000000Y-63450000D01*
X152000000Y-56450000D02*
X154000000Y-56450000D01*
X154000000Y-60450000D01*
X152000000Y-60450000D01*
X152000000Y-56450000D01*
X152000000Y-63450000D02*
X154000000Y-63450000D01*
X154000000Y-67450000D01*
X152000000Y-67450000D01*
X152000000Y-63450000D01*
X152000000Y-49450000D02*
X154000000Y-49450000D01*
X154000000Y-53450000D01*
X152000000Y-53450000D01*
X152000000Y-49450000D01*
X141000000Y-53950000D02*
X151000000Y-53950000D01*
X151000000Y-55950000D01*
X141000000Y-55950000D01*
X141000000Y-53950000D01*
X140000000Y-48950000D02*
X194000000Y-48950000D01*
X194000000Y-74950000D01*
X140000000Y-74950000D01*
X140000000Y-48950000D01*
X169000000Y-53950000D02*
X179000000Y-53950000D01*
X179000000Y-55950000D01*
X169000000Y-55950000D01*
X169000000Y-53950000D01*
M02*
