%TF.GenerationSoftware,KiCad,Pcbnew,8.0.2*%
%TF.CreationDate,2026-04-29T21:42:39+02:00*%
%TF.ProjectId,projektPanel,70726f6a-656b-4745-9061-6e656c2e6b69,rev?*%
%TF.SameCoordinates,Original*%
%TF.FileFunction,Paste,Top*%
%TF.FilePolarity,Positive*%
%FSLAX46Y46*%
G04 Gerber Fmt 4.6, Leading zero omitted, Abs format (unit mm)*
G04 Created by KiCad (PCBNEW 8.0.2) date 2026-04-29 21:42:39*
%MOMM*%
%LPD*%
G01*
G04 APERTURE LIST*
G04 Aperture macros list*
%AMRoundRect*
0 Rectangle with rounded corners*
0 $1 Rounding radius*
0 $2 $3 $4 $5 $6 $7 $8 $9 X,Y pos of 4 corners*
0 Add a 4 corners polygon primitive as box body*
4,1,4,$2,$3,$4,$5,$6,$7,$8,$9,$2,$3,0*
0 Add four circle primitives for the rounded corners*
1,1,$1+$1,$2,$3*
1,1,$1+$1,$4,$5*
1,1,$1+$1,$6,$7*
1,1,$1+$1,$8,$9*
0 Add four rect primitives between the rounded corners*
20,1,$1+$1,$2,$3,$4,$5,0*
20,1,$1+$1,$4,$5,$6,$7,0*
20,1,$1+$1,$6,$7,$8,$9,0*
20,1,$1+$1,$8,$9,$2,$3,0*%
G04 Aperture macros list end*
%ADD10RoundRect,0.150000X-0.150000X0.350000X-0.150000X-0.350000X0.150000X-0.350000X0.150000X0.350000X0*%
%ADD11RoundRect,0.150000X0.150000X-0.350000X0.150000X0.350000X-0.150000X0.350000X-0.150000X-0.350000X0*%
%ADD12RoundRect,0.087500X0.125000X0.087500X-0.125000X0.087500X-0.125000X-0.087500X0.125000X-0.087500X0*%
%ADD13RoundRect,0.087500X0.087500X0.125000X-0.087500X0.125000X-0.087500X-0.125000X0.087500X-0.125000X0*%
%ADD14RoundRect,0.087500X-0.125000X-0.087500X0.125000X-0.087500X0.125000X0.087500X-0.125000X0.087500X0*%
%ADD15RoundRect,0.087500X-0.087500X-0.125000X0.087500X-0.125000X0.087500X0.125000X-0.087500X0.125000X0*%
G04 APERTURE END LIST*
D10*
%TO.C,J2*%
X159150000Y-49750000D03*
D11*
X159875000Y-49750000D03*
X160600000Y-49750000D03*
X161325000Y-49750000D03*
%TD*%
D12*
%TO.C,U1*%
X142912500Y-72700000D03*
X142912500Y-72200000D03*
D13*
X142650000Y-71687500D03*
X142150000Y-71687500D03*
X141650000Y-71687500D03*
D12*
X141387500Y-72200000D03*
X141387500Y-72700000D03*
D13*
X141650000Y-73212500D03*
X142150000Y-73212500D03*
X142650000Y-73212500D03*
%TD*%
D12*
%TO.C,U1*%
X170912500Y-72700000D03*
X170912500Y-72200000D03*
D13*
X170650000Y-71687500D03*
X170150000Y-71687500D03*
X169650000Y-71687500D03*
D12*
X169387500Y-72200000D03*
X169387500Y-72700000D03*
D13*
X169650000Y-73212500D03*
X170150000Y-73212500D03*
X170650000Y-73212500D03*
%TD*%
D14*
%TO.C,U2*%
X149245806Y-51450000D03*
X149245806Y-51950000D03*
D15*
X149508306Y-52462500D03*
X150008306Y-52462500D03*
X150508306Y-52462500D03*
D14*
X150770806Y-51950000D03*
X150770806Y-51450000D03*
D15*
X150508306Y-50937500D03*
X150008306Y-50937500D03*
X149508306Y-50937500D03*
%TD*%
D10*
%TO.C,J2*%
X173150000Y-56750000D03*
D11*
X173875000Y-56750000D03*
X174600000Y-56750000D03*
X175325000Y-56750000D03*
%TD*%
D14*
%TO.C,U2*%
X149245806Y-58450000D03*
X149245806Y-58950000D03*
D15*
X149508306Y-59462500D03*
X150008306Y-59462500D03*
X150508306Y-59462500D03*
D14*
X150770806Y-58950000D03*
X150770806Y-58450000D03*
D15*
X150508306Y-57937500D03*
X150008306Y-57937500D03*
X149508306Y-57937500D03*
%TD*%
D10*
%TO.C,J2*%
X145150000Y-56750000D03*
D11*
X145875000Y-56750000D03*
X146600000Y-56750000D03*
X147325000Y-56750000D03*
%TD*%
D10*
%TO.C,J2*%
X173150000Y-49750000D03*
D11*
X173875000Y-49750000D03*
X174600000Y-49750000D03*
X175325000Y-49750000D03*
%TD*%
D12*
%TO.C,U1*%
X142912500Y-51700000D03*
X142912500Y-51200000D03*
D13*
X142650000Y-50687500D03*
X142150000Y-50687500D03*
X141650000Y-50687500D03*
D12*
X141387500Y-51200000D03*
X141387500Y-51700000D03*
D13*
X141650000Y-52212500D03*
X142150000Y-52212500D03*
X142650000Y-52212500D03*
%TD*%
D12*
%TO.C,U1*%
X170912500Y-65700000D03*
X170912500Y-65200000D03*
D13*
X170650000Y-64687500D03*
X170150000Y-64687500D03*
X169650000Y-64687500D03*
D12*
X169387500Y-65200000D03*
X169387500Y-65700000D03*
D13*
X169650000Y-66212500D03*
X170150000Y-66212500D03*
X170650000Y-66212500D03*
%TD*%
D12*
%TO.C,U1*%
X156912500Y-58700000D03*
X156912500Y-58200000D03*
D13*
X156650000Y-57687500D03*
X156150000Y-57687500D03*
X155650000Y-57687500D03*
D12*
X155387500Y-58200000D03*
X155387500Y-58700000D03*
D13*
X155650000Y-59212500D03*
X156150000Y-59212500D03*
X156650000Y-59212500D03*
%TD*%
D12*
%TO.C,U1*%
X156912500Y-65700000D03*
X156912500Y-65200000D03*
D13*
X156650000Y-64687500D03*
X156150000Y-64687500D03*
X155650000Y-64687500D03*
D12*
X155387500Y-65200000D03*
X155387500Y-65700000D03*
D13*
X155650000Y-66212500D03*
X156150000Y-66212500D03*
X156650000Y-66212500D03*
%TD*%
D12*
%TO.C,U1*%
X170912500Y-51700000D03*
X170912500Y-51200000D03*
D13*
X170650000Y-50687500D03*
X170150000Y-50687500D03*
X169650000Y-50687500D03*
D12*
X169387500Y-51200000D03*
X169387500Y-51700000D03*
D13*
X169650000Y-52212500D03*
X170150000Y-52212500D03*
X170650000Y-52212500D03*
%TD*%
D14*
%TO.C,U2*%
X149245806Y-65450000D03*
X149245806Y-65950000D03*
D15*
X149508306Y-66462500D03*
X150008306Y-66462500D03*
X150508306Y-66462500D03*
D14*
X150770806Y-65950000D03*
X150770806Y-65450000D03*
D15*
X150508306Y-64937500D03*
X150008306Y-64937500D03*
X149508306Y-64937500D03*
%TD*%
D12*
%TO.C,U1*%
X184912500Y-72700000D03*
X184912500Y-72200000D03*
D13*
X184650000Y-71687500D03*
X184150000Y-71687500D03*
X183650000Y-71687500D03*
D12*
X183387500Y-72200000D03*
X183387500Y-72700000D03*
D13*
X183650000Y-73212500D03*
X184150000Y-73212500D03*
X184650000Y-73212500D03*
%TD*%
D12*
%TO.C,U1*%
X156912500Y-72700000D03*
X156912500Y-72200000D03*
D13*
X156650000Y-71687500D03*
X156150000Y-71687500D03*
X155650000Y-71687500D03*
D12*
X155387500Y-72200000D03*
X155387500Y-72700000D03*
D13*
X155650000Y-73212500D03*
X156150000Y-73212500D03*
X156650000Y-73212500D03*
%TD*%
D10*
%TO.C,J2*%
X187150000Y-63750000D03*
D11*
X187875000Y-63750000D03*
X188600000Y-63750000D03*
X189325000Y-63750000D03*
%TD*%
D14*
%TO.C,U2*%
X163245806Y-51450000D03*
X163245806Y-51950000D03*
D15*
X163508306Y-52462500D03*
X164008306Y-52462500D03*
X164508306Y-52462500D03*
D14*
X164770806Y-51950000D03*
X164770806Y-51450000D03*
D15*
X164508306Y-50937500D03*
X164008306Y-50937500D03*
X163508306Y-50937500D03*
%TD*%
D10*
%TO.C,J2*%
X187150000Y-56750000D03*
D11*
X187875000Y-56750000D03*
X188600000Y-56750000D03*
X189325000Y-56750000D03*
%TD*%
D12*
%TO.C,U1*%
X170912500Y-58700000D03*
X170912500Y-58200000D03*
D13*
X170650000Y-57687500D03*
X170150000Y-57687500D03*
X169650000Y-57687500D03*
D12*
X169387500Y-58200000D03*
X169387500Y-58700000D03*
D13*
X169650000Y-59212500D03*
X170150000Y-59212500D03*
X170650000Y-59212500D03*
%TD*%
D14*
%TO.C,U2*%
X191245806Y-51450000D03*
X191245806Y-51950000D03*
D15*
X191508306Y-52462500D03*
X192008306Y-52462500D03*
X192508306Y-52462500D03*
D14*
X192770806Y-51950000D03*
X192770806Y-51450000D03*
D15*
X192508306Y-50937500D03*
X192008306Y-50937500D03*
X191508306Y-50937500D03*
%TD*%
D14*
%TO.C,U2*%
X191245806Y-58450000D03*
X191245806Y-58950000D03*
D15*
X191508306Y-59462500D03*
X192008306Y-59462500D03*
X192508306Y-59462500D03*
D14*
X192770806Y-58950000D03*
X192770806Y-58450000D03*
D15*
X192508306Y-57937500D03*
X192008306Y-57937500D03*
X191508306Y-57937500D03*
%TD*%
D10*
%TO.C,J2*%
X159150000Y-56750000D03*
D11*
X159875000Y-56750000D03*
X160600000Y-56750000D03*
X161325000Y-56750000D03*
%TD*%
D12*
%TO.C,U1*%
X184912500Y-51700000D03*
X184912500Y-51200000D03*
D13*
X184650000Y-50687500D03*
X184150000Y-50687500D03*
X183650000Y-50687500D03*
D12*
X183387500Y-51200000D03*
X183387500Y-51700000D03*
D13*
X183650000Y-52212500D03*
X184150000Y-52212500D03*
X184650000Y-52212500D03*
%TD*%
D10*
%TO.C,J2*%
X145150000Y-70750000D03*
D11*
X145875000Y-70750000D03*
X146600000Y-70750000D03*
X147325000Y-70750000D03*
%TD*%
D14*
%TO.C,U2*%
X177245806Y-58450000D03*
X177245806Y-58950000D03*
D15*
X177508306Y-59462500D03*
X178008306Y-59462500D03*
X178508306Y-59462500D03*
D14*
X178770806Y-58950000D03*
X178770806Y-58450000D03*
D15*
X178508306Y-57937500D03*
X178008306Y-57937500D03*
X177508306Y-57937500D03*
%TD*%
D14*
%TO.C,U2*%
X191245806Y-65450000D03*
X191245806Y-65950000D03*
D15*
X191508306Y-66462500D03*
X192008306Y-66462500D03*
X192508306Y-66462500D03*
D14*
X192770806Y-65950000D03*
X192770806Y-65450000D03*
D15*
X192508306Y-64937500D03*
X192008306Y-64937500D03*
X191508306Y-64937500D03*
%TD*%
D14*
%TO.C,U2*%
X163245806Y-65450000D03*
X163245806Y-65950000D03*
D15*
X163508306Y-66462500D03*
X164008306Y-66462500D03*
X164508306Y-66462500D03*
D14*
X164770806Y-65950000D03*
X164770806Y-65450000D03*
D15*
X164508306Y-64937500D03*
X164008306Y-64937500D03*
X163508306Y-64937500D03*
%TD*%
D12*
%TO.C,U1*%
X184912500Y-58700000D03*
X184912500Y-58200000D03*
D13*
X184650000Y-57687500D03*
X184150000Y-57687500D03*
X183650000Y-57687500D03*
D12*
X183387500Y-58200000D03*
X183387500Y-58700000D03*
D13*
X183650000Y-59212500D03*
X184150000Y-59212500D03*
X184650000Y-59212500D03*
%TD*%
D10*
%TO.C,J2*%
X159150000Y-70750000D03*
D11*
X159875000Y-70750000D03*
X160600000Y-70750000D03*
X161325000Y-70750000D03*
%TD*%
D10*
%TO.C,J2*%
X173150000Y-63750000D03*
D11*
X173875000Y-63750000D03*
X174600000Y-63750000D03*
X175325000Y-63750000D03*
%TD*%
D10*
%TO.C,J2*%
X173150000Y-70750000D03*
D11*
X173875000Y-70750000D03*
X174600000Y-70750000D03*
X175325000Y-70750000D03*
%TD*%
D14*
%TO.C,U2*%
X163245806Y-58450000D03*
X163245806Y-58950000D03*
D15*
X163508306Y-59462500D03*
X164008306Y-59462500D03*
X164508306Y-59462500D03*
D14*
X164770806Y-58950000D03*
X164770806Y-58450000D03*
D15*
X164508306Y-57937500D03*
X164008306Y-57937500D03*
X163508306Y-57937500D03*
%TD*%
D10*
%TO.C,J2*%
X145150000Y-63750000D03*
D11*
X145875000Y-63750000D03*
X146600000Y-63750000D03*
X147325000Y-63750000D03*
%TD*%
D12*
%TO.C,U1*%
X156912500Y-51700000D03*
X156912500Y-51200000D03*
D13*
X156650000Y-50687500D03*
X156150000Y-50687500D03*
X155650000Y-50687500D03*
D12*
X155387500Y-51200000D03*
X155387500Y-51700000D03*
D13*
X155650000Y-52212500D03*
X156150000Y-52212500D03*
X156650000Y-52212500D03*
%TD*%
D14*
%TO.C,U2*%
X149245806Y-72450000D03*
X149245806Y-72950000D03*
D15*
X149508306Y-73462500D03*
X150008306Y-73462500D03*
X150508306Y-73462500D03*
D14*
X150770806Y-72950000D03*
X150770806Y-72450000D03*
D15*
X150508306Y-71937500D03*
X150008306Y-71937500D03*
X149508306Y-71937500D03*
%TD*%
D12*
%TO.C,U1*%
X142912500Y-58700000D03*
X142912500Y-58200000D03*
D13*
X142650000Y-57687500D03*
X142150000Y-57687500D03*
X141650000Y-57687500D03*
D12*
X141387500Y-58200000D03*
X141387500Y-58700000D03*
D13*
X141650000Y-59212500D03*
X142150000Y-59212500D03*
X142650000Y-59212500D03*
%TD*%
D14*
%TO.C,U2*%
X177245806Y-65450000D03*
X177245806Y-65950000D03*
D15*
X177508306Y-66462500D03*
X178008306Y-66462500D03*
X178508306Y-66462500D03*
D14*
X178770806Y-65950000D03*
X178770806Y-65450000D03*
D15*
X178508306Y-64937500D03*
X178008306Y-64937500D03*
X177508306Y-64937500D03*
%TD*%
D14*
%TO.C,U2*%
X163245806Y-72450000D03*
X163245806Y-72950000D03*
D15*
X163508306Y-73462500D03*
X164008306Y-73462500D03*
X164508306Y-73462500D03*
D14*
X164770806Y-72950000D03*
X164770806Y-72450000D03*
D15*
X164508306Y-71937500D03*
X164008306Y-71937500D03*
X163508306Y-71937500D03*
%TD*%
D12*
%TO.C,U1*%
X142912500Y-65700000D03*
X142912500Y-65200000D03*
D13*
X142650000Y-64687500D03*
X142150000Y-64687500D03*
X141650000Y-64687500D03*
D12*
X141387500Y-65200000D03*
X141387500Y-65700000D03*
D13*
X141650000Y-66212500D03*
X142150000Y-66212500D03*
X142650000Y-66212500D03*
%TD*%
D10*
%TO.C,J2*%
X187150000Y-70750000D03*
D11*
X187875000Y-70750000D03*
X188600000Y-70750000D03*
X189325000Y-70750000D03*
%TD*%
D10*
%TO.C,J2*%
X159150000Y-63750000D03*
D11*
X159875000Y-63750000D03*
X160600000Y-63750000D03*
X161325000Y-63750000D03*
%TD*%
D14*
%TO.C,U2*%
X177245806Y-51450000D03*
X177245806Y-51950000D03*
D15*
X177508306Y-52462500D03*
X178008306Y-52462500D03*
X178508306Y-52462500D03*
D14*
X178770806Y-51950000D03*
X178770806Y-51450000D03*
D15*
X178508306Y-50937500D03*
X178008306Y-50937500D03*
X177508306Y-50937500D03*
%TD*%
D12*
%TO.C,U1*%
X184912500Y-65700000D03*
X184912500Y-65200000D03*
D13*
X184650000Y-64687500D03*
X184150000Y-64687500D03*
X183650000Y-64687500D03*
D12*
X183387500Y-65200000D03*
X183387500Y-65700000D03*
D13*
X183650000Y-66212500D03*
X184150000Y-66212500D03*
X184650000Y-66212500D03*
%TD*%
D10*
%TO.C,J2*%
X145150000Y-49750000D03*
D11*
X145875000Y-49750000D03*
X146600000Y-49750000D03*
X147325000Y-49750000D03*
%TD*%
D14*
%TO.C,U2*%
X191245806Y-72450000D03*
X191245806Y-72950000D03*
D15*
X191508306Y-73462500D03*
X192008306Y-73462500D03*
X192508306Y-73462500D03*
D14*
X192770806Y-72950000D03*
X192770806Y-72450000D03*
D15*
X192508306Y-71937500D03*
X192008306Y-71937500D03*
X191508306Y-71937500D03*
%TD*%
D10*
%TO.C,J2*%
X187150000Y-49750000D03*
D11*
X187875000Y-49750000D03*
X188600000Y-49750000D03*
X189325000Y-49750000D03*
%TD*%
D14*
%TO.C,U2*%
X177245806Y-72450000D03*
X177245806Y-72950000D03*
D15*
X177508306Y-73462500D03*
X178008306Y-73462500D03*
X178508306Y-73462500D03*
D14*
X178770806Y-72950000D03*
X178770806Y-72450000D03*
D15*
X178508306Y-71937500D03*
X178008306Y-71937500D03*
X177508306Y-71937500D03*
%TD*%
M02*
