%TF.GenerationSoftware,KiCad,Pcbnew,8.0.2*%
%TF.CreationDate,2026-04-29T21:42:39+02:00*%
%TF.ProjectId,projektPanel,70726f6a-656b-4745-9061-6e656c2e6b69,rev?*%
%TF.SameCoordinates,Original*%
%TF.FileFunction,Legend,Bot*%
%TF.FilePolarity,Positive*%
%FSLAX46Y46*%
G04 Gerber Fmt 4.6, Leading zero omitted, Abs format (unit mm)*
G04 Created by KiCad (PCBNEW 8.0.2) date 2026-04-29 21:42:39*
%MOMM*%
%LPD*%
G01*
G04 APERTURE LIST*
%ADD10C,0.120000*%
G04 APERTURE END LIST*
D10*
%TO.C,C1*%
X145661748Y-51565000D02*
X146184252Y-51565000D01*
X145661748Y-53035000D02*
X146184252Y-53035000D01*
X187661748Y-65565000D02*
X188184252Y-65565000D01*
X187661748Y-67035000D02*
X188184252Y-67035000D01*
X173661748Y-58565000D02*
X174184252Y-58565000D01*
X173661748Y-60035000D02*
X174184252Y-60035000D01*
X145661748Y-65565000D02*
X146184252Y-65565000D01*
X145661748Y-67035000D02*
X146184252Y-67035000D01*
X159661748Y-58565000D02*
X160184252Y-58565000D01*
X159661748Y-60035000D02*
X160184252Y-60035000D01*
X145661748Y-72565000D02*
X146184252Y-72565000D01*
X145661748Y-74035000D02*
X146184252Y-74035000D01*
X173661748Y-72565000D02*
X174184252Y-72565000D01*
X173661748Y-74035000D02*
X174184252Y-74035000D01*
X159661748Y-65565000D02*
X160184252Y-65565000D01*
X159661748Y-67035000D02*
X160184252Y-67035000D01*
X187661748Y-58565000D02*
X188184252Y-58565000D01*
X187661748Y-60035000D02*
X188184252Y-60035000D01*
X187661748Y-72565000D02*
X188184252Y-72565000D01*
X187661748Y-74035000D02*
X188184252Y-74035000D01*
X187661748Y-51565000D02*
X188184252Y-51565000D01*
X187661748Y-53035000D02*
X188184252Y-53035000D01*
X173661748Y-51565000D02*
X174184252Y-51565000D01*
X173661748Y-53035000D02*
X174184252Y-53035000D01*
X159661748Y-51565000D02*
X160184252Y-51565000D01*
X159661748Y-53035000D02*
X160184252Y-53035000D01*
X173661748Y-65565000D02*
X174184252Y-65565000D01*
X173661748Y-67035000D02*
X174184252Y-67035000D01*
X145661748Y-58565000D02*
X146184252Y-58565000D01*
X145661748Y-60035000D02*
X146184252Y-60035000D01*
X159661748Y-72565000D02*
X160184252Y-72565000D01*
X159661748Y-74035000D02*
X160184252Y-74035000D01*
%TD*%
M02*
