%TF.GenerationSoftware,KiCad,Pcbnew,8.0.2*%
%TF.CreationDate,2026-04-29T21:42:39+02:00*%
%TF.ProjectId,projektPanel,70726f6a-656b-4745-9061-6e656c2e6b69,rev?*%
%TF.SameCoordinates,Original*%
%TF.FileFunction,Copper,L2,Bot*%
%TF.FilePolarity,Positive*%
%FSLAX46Y46*%
G04 Gerber Fmt 4.6, Leading zero omitted, Abs format (unit mm)*
G04 Created by KiCad (PCBNEW 8.0.2) date 2026-04-29 21:42:39*
%MOMM*%
%LPD*%
G01*
G04 APERTURE LIST*
G04 Aperture macros list*
%AMRoundRect*
0 Rectangle with rounded corners*
0 $1 Rounding radius*
0 $2 $3 $4 $5 $6 $7 $8 $9 X,Y pos of 4 corners*
0 Add a 4 corners polygon primitive as box body*
4,1,4,$2,$3,$4,$5,$6,$7,$8,$9,$2,$3,0*
0 Add four circle primitives for the rounded corners*
1,1,$1+$1,$2,$3*
1,1,$1+$1,$4,$5*
1,1,$1+$1,$6,$7*
1,1,$1+$1,$8,$9*
0 Add four rect primitives between the rounded corners*
20,1,$1+$1,$2,$3,$4,$5,0*
20,1,$1+$1,$4,$5,$6,$7,0*
20,1,$1+$1,$6,$7,$8,$9,0*
20,1,$1+$1,$8,$9,$2,$3,0*%
G04 Aperture macros list end*
%TA.AperFunction,SMDPad,CuDef*%
%ADD10RoundRect,0.250000X0.250000X0.475000X-0.250000X0.475000X-0.250000X-0.475000X0.250000X-0.475000X0*%
%TD*%
%TA.AperFunction,ViaPad*%
%ADD11C,0.600000*%
%TD*%
%TA.AperFunction,Conductor*%
%ADD12C,0.101600*%
%TD*%
G04 APERTURE END LIST*
D10*
%TO.P,C1,1*%
%TO.N,1 3V3*%
X146873000Y-52300000D03*
%TO.P,C1,2*%
%TO.N,2 GND*%
X144973000Y-52300000D03*
%TD*%
%TO.P,C1,1*%
%TO.N,1 3V3*%
X188873000Y-66300000D03*
%TO.P,C1,2*%
%TO.N,2 GND*%
X186973000Y-66300000D03*
%TD*%
%TO.P,C1,1*%
%TO.N,1 3V3*%
X174873000Y-59300000D03*
%TO.P,C1,2*%
%TO.N,2 GND*%
X172973000Y-59300000D03*
%TD*%
%TO.P,C1,1*%
%TO.N,1 3V3*%
X146873000Y-66300000D03*
%TO.P,C1,2*%
%TO.N,2 GND*%
X144973000Y-66300000D03*
%TD*%
%TO.P,C1,1*%
%TO.N,1 3V3*%
X160873000Y-59300000D03*
%TO.P,C1,2*%
%TO.N,2 GND*%
X158973000Y-59300000D03*
%TD*%
%TO.P,C1,1*%
%TO.N,1 3V3*%
X146873000Y-73300000D03*
%TO.P,C1,2*%
%TO.N,2 GND*%
X144973000Y-73300000D03*
%TD*%
%TO.P,C1,1*%
%TO.N,1 3V3*%
X174873000Y-73300000D03*
%TO.P,C1,2*%
%TO.N,2 GND*%
X172973000Y-73300000D03*
%TD*%
%TO.P,C1,1*%
%TO.N,1 3V3*%
X160873000Y-66300000D03*
%TO.P,C1,2*%
%TO.N,2 GND*%
X158973000Y-66300000D03*
%TD*%
%TO.P,C1,1*%
%TO.N,1 3V3*%
X188873000Y-59300000D03*
%TO.P,C1,2*%
%TO.N,2 GND*%
X186973000Y-59300000D03*
%TD*%
%TO.P,C1,1*%
%TO.N,1 3V3*%
X188873000Y-73300000D03*
%TO.P,C1,2*%
%TO.N,2 GND*%
X186973000Y-73300000D03*
%TD*%
%TO.P,C1,1*%
%TO.N,1 3V3*%
X188873000Y-52300000D03*
%TO.P,C1,2*%
%TO.N,2 GND*%
X186973000Y-52300000D03*
%TD*%
%TO.P,C1,1*%
%TO.N,1 3V3*%
X174873000Y-52300000D03*
%TO.P,C1,2*%
%TO.N,2 GND*%
X172973000Y-52300000D03*
%TD*%
%TO.P,C1,1*%
%TO.N,1 3V3*%
X160873000Y-52300000D03*
%TO.P,C1,2*%
%TO.N,2 GND*%
X158973000Y-52300000D03*
%TD*%
%TO.P,C1,1*%
%TO.N,1 3V3*%
X174873000Y-66300000D03*
%TO.P,C1,2*%
%TO.N,2 GND*%
X172973000Y-66300000D03*
%TD*%
%TO.P,C1,1*%
%TO.N,1 3V3*%
X146873000Y-59300000D03*
%TO.P,C1,2*%
%TO.N,2 GND*%
X144973000Y-59300000D03*
%TD*%
%TO.P,C1,1*%
%TO.N,1 3V3*%
X160873000Y-73300000D03*
%TO.P,C1,2*%
%TO.N,2 GND*%
X158973000Y-73300000D03*
%TD*%
D11*
%TO.N,1 3V3*%
X148209000Y-73660000D03*
X190336000Y-71882000D03*
X176209000Y-73660000D03*
X162209000Y-52660000D03*
X176209000Y-66660000D03*
X162209000Y-66660000D03*
X190336000Y-57882000D03*
X148336000Y-57882000D03*
X148209000Y-59660000D03*
X162336000Y-57882000D03*
X148336000Y-71882000D03*
X148336000Y-50882000D03*
X162209000Y-59660000D03*
X148336000Y-64882000D03*
X176209000Y-52660000D03*
X162336000Y-50882000D03*
X190336000Y-64882000D03*
X176336000Y-50882000D03*
X176209000Y-59660000D03*
X176336000Y-57882000D03*
X162209000Y-73660000D03*
X190209000Y-73660000D03*
X176336000Y-71882000D03*
X148209000Y-66660000D03*
X190336000Y-50882000D03*
X162336000Y-71882000D03*
X162336000Y-64882000D03*
X148209000Y-52660000D03*
X190209000Y-59660000D03*
X176336000Y-64882000D03*
X190209000Y-66660000D03*
X190209000Y-52660000D03*
%TO.N,2 GND*%
X185383000Y-63739000D03*
X171383000Y-63739000D03*
X178241000Y-49993000D03*
X190844000Y-67422000D03*
X185383000Y-49739000D03*
X157383000Y-63739000D03*
X157383000Y-56739000D03*
X143383000Y-70739000D03*
X168500000Y-60295000D03*
X157383000Y-70739000D03*
X148844000Y-53422000D03*
X154500000Y-67295000D03*
X164241000Y-63993000D03*
X168500000Y-74295000D03*
X162844000Y-53422000D03*
X192241000Y-56993000D03*
X192241000Y-70993000D03*
X150241000Y-56993000D03*
X157383000Y-49739000D03*
X140500000Y-74295000D03*
X150241000Y-49993000D03*
X164241000Y-70993000D03*
X190844000Y-53422000D03*
X148844000Y-74422000D03*
X171383000Y-56739000D03*
X150241000Y-70993000D03*
X148844000Y-60422000D03*
X162844000Y-74422000D03*
X150241000Y-63993000D03*
X192241000Y-49993000D03*
X185383000Y-56739000D03*
X182500000Y-67295000D03*
X143383000Y-56739000D03*
X182500000Y-74295000D03*
X190844000Y-74422000D03*
X171383000Y-70739000D03*
X190844000Y-60422000D03*
X182500000Y-60295000D03*
X176844000Y-53422000D03*
X140500000Y-60295000D03*
X178241000Y-56993000D03*
X154500000Y-60295000D03*
X182500000Y-53295000D03*
X154500000Y-74295000D03*
X140500000Y-67295000D03*
X176844000Y-60422000D03*
X164241000Y-49993000D03*
X162844000Y-60422000D03*
X168500000Y-53295000D03*
X176844000Y-74422000D03*
X164241000Y-56993000D03*
X148844000Y-67422000D03*
X176844000Y-67422000D03*
X178241000Y-70993000D03*
X140500000Y-53295000D03*
X192241000Y-63993000D03*
X162844000Y-67422000D03*
X143383000Y-63739000D03*
X185383000Y-70739000D03*
X168500000Y-67295000D03*
X171383000Y-49739000D03*
X178241000Y-63993000D03*
X143383000Y-49739000D03*
X154500000Y-53295000D03*
%TO.N,6 SDI*%
X142113000Y-49866000D03*
X184113000Y-70866000D03*
X160431000Y-64882000D03*
X192495000Y-67422000D03*
X160431000Y-50882000D03*
X146431000Y-50882000D03*
X160431000Y-57882000D03*
X184113000Y-56866000D03*
X174431000Y-50882000D03*
X150495000Y-60422000D03*
X178495000Y-60422000D03*
X188431000Y-50882000D03*
X146431000Y-71882000D03*
X184113000Y-63866000D03*
X156113000Y-49866000D03*
X174431000Y-57882000D03*
X142113000Y-70866000D03*
X192495000Y-53422000D03*
X192495000Y-74422000D03*
X164495000Y-74422000D03*
X170113000Y-56866000D03*
X156113000Y-63866000D03*
X178495000Y-74422000D03*
X170113000Y-49866000D03*
X146431000Y-64882000D03*
X188431000Y-64882000D03*
X142113000Y-56866000D03*
X188431000Y-71882000D03*
X156113000Y-56866000D03*
X156113000Y-70866000D03*
X146431000Y-57882000D03*
X188431000Y-57882000D03*
X150495000Y-74422000D03*
X164495000Y-60422000D03*
X160431000Y-71882000D03*
X164495000Y-53422000D03*
X178495000Y-53422000D03*
X178495000Y-67422000D03*
X170113000Y-70866000D03*
X150495000Y-67422000D03*
X174431000Y-64882000D03*
X184113000Y-49866000D03*
X150495000Y-53422000D03*
X174431000Y-71882000D03*
X142113000Y-63866000D03*
X170113000Y-63866000D03*
X192495000Y-60422000D03*
X164495000Y-67422000D03*
%TD*%
D12*
%TO.N,1 3V3*%
X146873000Y-66300000D02*
X147849000Y-66300000D01*
X188873000Y-52300000D02*
X189849000Y-52300000D01*
X188873000Y-73300000D02*
X189849000Y-73300000D01*
X162336000Y-57882000D02*
X162291000Y-57882000D01*
X162291000Y-71882000D02*
X160873000Y-73300000D01*
X190336000Y-71882000D02*
X190291000Y-71882000D01*
X190291000Y-71882000D02*
X188873000Y-73300000D01*
X190336000Y-50882000D02*
X190291000Y-50882000D01*
X160873000Y-66300000D02*
X161849000Y-66300000D01*
X147849000Y-52300000D02*
X148209000Y-52660000D01*
X175849000Y-73300000D02*
X176209000Y-73660000D01*
X147849000Y-73300000D02*
X148209000Y-73660000D01*
X176291000Y-50882000D02*
X174873000Y-52300000D01*
X175849000Y-66300000D02*
X176209000Y-66660000D01*
X160873000Y-52300000D02*
X161849000Y-52300000D01*
X161849000Y-66300000D02*
X162209000Y-66660000D01*
X176336000Y-71882000D02*
X176291000Y-71882000D01*
X188873000Y-59300000D02*
X189849000Y-59300000D01*
X162291000Y-57882000D02*
X160873000Y-59300000D01*
X190336000Y-64882000D02*
X190291000Y-64882000D01*
X190291000Y-50882000D02*
X188873000Y-52300000D01*
X176336000Y-64882000D02*
X176291000Y-64882000D01*
X190291000Y-64882000D02*
X188873000Y-66300000D01*
X148291000Y-57882000D02*
X146873000Y-59300000D01*
X176291000Y-64882000D02*
X174873000Y-66300000D01*
X189849000Y-66300000D02*
X190209000Y-66660000D01*
X146873000Y-73300000D02*
X147849000Y-73300000D01*
X146873000Y-52300000D02*
X147849000Y-52300000D01*
X148336000Y-57882000D02*
X148291000Y-57882000D01*
X148291000Y-71882000D02*
X146873000Y-73300000D01*
X176291000Y-57882000D02*
X174873000Y-59300000D01*
X190336000Y-57882000D02*
X190291000Y-57882000D01*
X148336000Y-64882000D02*
X148291000Y-64882000D01*
X147849000Y-66300000D02*
X148209000Y-66660000D01*
X161849000Y-52300000D02*
X162209000Y-52660000D01*
X162336000Y-71882000D02*
X162291000Y-71882000D01*
X148291000Y-64882000D02*
X146873000Y-66300000D01*
X162336000Y-50882000D02*
X162291000Y-50882000D01*
X174873000Y-66300000D02*
X175849000Y-66300000D01*
X174873000Y-59300000D02*
X175849000Y-59300000D01*
X160873000Y-73300000D02*
X161849000Y-73300000D01*
X148336000Y-50882000D02*
X148291000Y-50882000D01*
X146873000Y-59300000D02*
X147849000Y-59300000D01*
X189849000Y-73300000D02*
X190209000Y-73660000D01*
X161849000Y-59300000D02*
X162209000Y-59660000D01*
X174873000Y-52300000D02*
X175849000Y-52300000D01*
X162291000Y-64882000D02*
X160873000Y-66300000D01*
X148291000Y-50882000D02*
X146873000Y-52300000D01*
X188873000Y-66300000D02*
X189849000Y-66300000D01*
X176291000Y-71882000D02*
X174873000Y-73300000D01*
X175849000Y-59300000D02*
X176209000Y-59660000D01*
X189849000Y-52300000D02*
X190209000Y-52660000D01*
X148336000Y-71882000D02*
X148291000Y-71882000D01*
X147849000Y-59300000D02*
X148209000Y-59660000D01*
X162291000Y-50882000D02*
X160873000Y-52300000D01*
X176336000Y-50882000D02*
X176291000Y-50882000D01*
X176336000Y-57882000D02*
X176291000Y-57882000D01*
X190291000Y-57882000D02*
X188873000Y-59300000D01*
X162336000Y-64882000D02*
X162291000Y-64882000D01*
X160873000Y-59300000D02*
X161849000Y-59300000D01*
X175849000Y-52300000D02*
X176209000Y-52660000D01*
X189849000Y-59300000D02*
X190209000Y-59660000D01*
X161849000Y-73300000D02*
X162209000Y-73660000D01*
X174873000Y-73300000D02*
X175849000Y-73300000D01*
%TO.N,2 GND*%
X175701000Y-67676000D02*
X175836185Y-67676000D01*
X154500000Y-60295000D02*
X154881000Y-60676000D01*
X176590000Y-74676000D02*
X176844000Y-74422000D01*
X175701000Y-74676000D02*
X176590000Y-74676000D01*
X161701000Y-67676000D02*
X162590000Y-67676000D01*
X140881000Y-67676000D02*
X144399000Y-67676000D01*
X150753093Y-64505093D02*
X150753093Y-64759093D01*
X186399000Y-60676000D02*
X186973000Y-60102000D01*
X158973000Y-53102000D02*
X158973000Y-52300000D01*
X172973000Y-67102000D02*
X172973000Y-66300000D01*
X157383000Y-49739000D02*
X158973000Y-51329000D01*
X178241000Y-56993000D02*
X178753093Y-57505093D01*
X158973000Y-51329000D02*
X158973000Y-52300000D01*
X186973000Y-60102000D02*
X186973000Y-59300000D01*
X162590000Y-67676000D02*
X162844000Y-67422000D01*
X182881000Y-74676000D02*
X186399000Y-74676000D01*
X192241000Y-56993000D02*
X192753093Y-57505093D01*
X150753093Y-50505093D02*
X150753093Y-50759093D01*
X150241000Y-63993000D02*
X150753093Y-64505093D01*
X171383000Y-56739000D02*
X172973000Y-58329000D01*
X186973000Y-67102000D02*
X186973000Y-66300000D01*
X157383000Y-63739000D02*
X158973000Y-65329000D01*
X186399000Y-74676000D02*
X186973000Y-74102000D01*
X172399000Y-60676000D02*
X172973000Y-60102000D01*
X186399000Y-67676000D02*
X189701000Y-67676000D01*
X158973000Y-65329000D02*
X158973000Y-66300000D01*
X148590000Y-74676000D02*
X148844000Y-74422000D01*
X171383000Y-63739000D02*
X172973000Y-65329000D01*
X144399000Y-53676000D02*
X147701000Y-53676000D01*
X144399000Y-53676000D02*
X144973000Y-53102000D01*
X172399000Y-53676000D02*
X175701000Y-53676000D01*
X157383000Y-70739000D02*
X158973000Y-72329000D01*
X189836185Y-67676000D02*
X192753093Y-64759093D01*
X161836185Y-74676000D02*
X164753093Y-71759093D01*
X175701000Y-67676000D02*
X176590000Y-67676000D01*
X192753093Y-50505093D02*
X192753093Y-50759093D01*
X164241000Y-63993000D02*
X164753093Y-64505093D01*
X147701000Y-60676000D02*
X147836185Y-60676000D01*
X161836185Y-60676000D02*
X164753093Y-57759093D01*
X168500000Y-74295000D02*
X168881000Y-74676000D01*
X189836185Y-53676000D02*
X192753093Y-50759093D01*
X158399000Y-74676000D02*
X158973000Y-74102000D01*
X172973000Y-51329000D02*
X172973000Y-52300000D01*
X175701000Y-53676000D02*
X176590000Y-53676000D01*
X144399000Y-60676000D02*
X144973000Y-60102000D01*
X140500000Y-67295000D02*
X140881000Y-67676000D01*
X185383000Y-63739000D02*
X186973000Y-65329000D01*
X164753093Y-64505093D02*
X164753093Y-64759093D01*
X190590000Y-67676000D02*
X190844000Y-67422000D01*
X182500000Y-67295000D02*
X182881000Y-67676000D01*
X185383000Y-49739000D02*
X186973000Y-51329000D01*
X186399000Y-53676000D02*
X189701000Y-53676000D01*
X182500000Y-53295000D02*
X182881000Y-53676000D01*
X158399000Y-53676000D02*
X158973000Y-53102000D01*
X164241000Y-70993000D02*
X164753093Y-71505093D01*
X154500000Y-74295000D02*
X154881000Y-74676000D01*
X161701000Y-60676000D02*
X161836185Y-60676000D01*
X143383000Y-70739000D02*
X144973000Y-72329000D01*
X140500000Y-53295000D02*
X140881000Y-53676000D01*
X185383000Y-56739000D02*
X186973000Y-58329000D01*
X144399000Y-74676000D02*
X144973000Y-74102000D01*
X161701000Y-74676000D02*
X161836185Y-74676000D01*
X158399000Y-53676000D02*
X161701000Y-53676000D01*
X176590000Y-53676000D02*
X176844000Y-53422000D01*
X144973000Y-51329000D02*
X144973000Y-52300000D01*
X161701000Y-60676000D02*
X162590000Y-60676000D01*
X150753093Y-71505093D02*
X150753093Y-71759093D01*
X144399000Y-67676000D02*
X144973000Y-67102000D01*
X175701000Y-53676000D02*
X175836185Y-53676000D01*
X182500000Y-60295000D02*
X182881000Y-60676000D01*
X168881000Y-74676000D02*
X172399000Y-74676000D01*
X178753093Y-57505093D02*
X178753093Y-57759093D01*
X150241000Y-56993000D02*
X150753093Y-57505093D01*
X154881000Y-74676000D02*
X158399000Y-74676000D01*
X140881000Y-60676000D02*
X144399000Y-60676000D01*
X147836185Y-60676000D02*
X150753093Y-57759093D01*
X158399000Y-60676000D02*
X161701000Y-60676000D01*
X178241000Y-70993000D02*
X178753093Y-71505093D01*
X186973000Y-65329000D02*
X186973000Y-66300000D01*
X144973000Y-58329000D02*
X144973000Y-59300000D01*
X147701000Y-74676000D02*
X147836185Y-74676000D01*
X158973000Y-72329000D02*
X158973000Y-73300000D01*
X161701000Y-53676000D02*
X161836185Y-53676000D01*
X178241000Y-63993000D02*
X178753093Y-64505093D01*
X147701000Y-53676000D02*
X147836185Y-53676000D01*
X172399000Y-53676000D02*
X172973000Y-53102000D01*
X144973000Y-67102000D02*
X144973000Y-66300000D01*
X171383000Y-70739000D02*
X172973000Y-72329000D01*
X154881000Y-53676000D02*
X158399000Y-53676000D01*
X175701000Y-60676000D02*
X175836185Y-60676000D01*
X140881000Y-74676000D02*
X144399000Y-74676000D01*
X192753093Y-57505093D02*
X192753093Y-57759093D01*
X144973000Y-74102000D02*
X144973000Y-73300000D01*
X168500000Y-53295000D02*
X168881000Y-53676000D01*
X189836185Y-60676000D02*
X192753093Y-57759093D01*
X148590000Y-53676000D02*
X148844000Y-53422000D01*
X192241000Y-49993000D02*
X192753093Y-50505093D01*
X143383000Y-63739000D02*
X144973000Y-65329000D01*
X178241000Y-49993000D02*
X178753093Y-50505093D01*
X176590000Y-67676000D02*
X176844000Y-67422000D01*
X147701000Y-74676000D02*
X148590000Y-74676000D01*
X186973000Y-51329000D02*
X186973000Y-52300000D01*
X192241000Y-70993000D02*
X192753093Y-71505093D01*
X172399000Y-74676000D02*
X175701000Y-74676000D01*
X186973000Y-74102000D02*
X186973000Y-73300000D01*
X186399000Y-74676000D02*
X189701000Y-74676000D01*
X182881000Y-53676000D02*
X186399000Y-53676000D01*
X154881000Y-67676000D02*
X158399000Y-67676000D01*
X189701000Y-67676000D02*
X190590000Y-67676000D01*
X147701000Y-53676000D02*
X148590000Y-53676000D01*
X147836185Y-67676000D02*
X150753093Y-64759093D01*
X147701000Y-60676000D02*
X148590000Y-60676000D01*
X144399000Y-60676000D02*
X147701000Y-60676000D01*
X154500000Y-53295000D02*
X154881000Y-53676000D01*
X162590000Y-74676000D02*
X162844000Y-74422000D01*
X186399000Y-53676000D02*
X186973000Y-53102000D01*
X154881000Y-60676000D02*
X158399000Y-60676000D01*
X186973000Y-72329000D02*
X186973000Y-73300000D01*
X147836185Y-53676000D02*
X150753093Y-50759093D01*
X189836185Y-74676000D02*
X192753093Y-71759093D01*
X162590000Y-53676000D02*
X162844000Y-53422000D01*
X172973000Y-65329000D02*
X172973000Y-66300000D01*
X182881000Y-67676000D02*
X186399000Y-67676000D01*
X148590000Y-60676000D02*
X148844000Y-60422000D01*
X172973000Y-53102000D02*
X172973000Y-52300000D01*
X168881000Y-53676000D02*
X172399000Y-53676000D01*
X192753093Y-71505093D02*
X192753093Y-71759093D01*
X158399000Y-74676000D02*
X161701000Y-74676000D01*
X140881000Y-53676000D02*
X144399000Y-53676000D01*
X150241000Y-70993000D02*
X150753093Y-71505093D01*
X164753093Y-57505093D02*
X164753093Y-57759093D01*
X164753093Y-71505093D02*
X164753093Y-71759093D01*
X182881000Y-60676000D02*
X186399000Y-60676000D01*
X161701000Y-67676000D02*
X161836185Y-67676000D01*
X175836185Y-67676000D02*
X178753093Y-64759093D01*
X189701000Y-60676000D02*
X189836185Y-60676000D01*
X158399000Y-67676000D02*
X161701000Y-67676000D01*
X161701000Y-74676000D02*
X162590000Y-74676000D01*
X172399000Y-67676000D02*
X172973000Y-67102000D01*
X178753093Y-64505093D02*
X178753093Y-64759093D01*
X164241000Y-49993000D02*
X164753093Y-50505093D01*
X162590000Y-60676000D02*
X162844000Y-60422000D01*
X158973000Y-74102000D02*
X158973000Y-73300000D01*
X144399000Y-67676000D02*
X147701000Y-67676000D01*
X148590000Y-67676000D02*
X148844000Y-67422000D01*
X150241000Y-49993000D02*
X150753093Y-50505093D01*
X175701000Y-60676000D02*
X176590000Y-60676000D01*
X168881000Y-67676000D02*
X172399000Y-67676000D01*
X158973000Y-58329000D02*
X158973000Y-59300000D01*
X186399000Y-67676000D02*
X186973000Y-67102000D01*
X186399000Y-60676000D02*
X189701000Y-60676000D01*
X158399000Y-60676000D02*
X158973000Y-60102000D01*
X190590000Y-74676000D02*
X190844000Y-74422000D01*
X150753093Y-57505093D02*
X150753093Y-57759093D01*
X172973000Y-74102000D02*
X172973000Y-73300000D01*
X182500000Y-74295000D02*
X182881000Y-74676000D01*
X189701000Y-53676000D02*
X189836185Y-53676000D01*
X178753093Y-71505093D02*
X178753093Y-71759093D01*
X178753093Y-50505093D02*
X178753093Y-50759093D01*
X154500000Y-67295000D02*
X154881000Y-67676000D01*
X172973000Y-60102000D02*
X172973000Y-59300000D01*
X189701000Y-60676000D02*
X190590000Y-60676000D01*
X186973000Y-58329000D02*
X186973000Y-59300000D01*
X147701000Y-67676000D02*
X148590000Y-67676000D01*
X172399000Y-67676000D02*
X175701000Y-67676000D01*
X144973000Y-53102000D02*
X144973000Y-52300000D01*
X158973000Y-67102000D02*
X158973000Y-66300000D01*
X171383000Y-49739000D02*
X172973000Y-51329000D01*
X140500000Y-74295000D02*
X140881000Y-74676000D01*
X143383000Y-49739000D02*
X144973000Y-51329000D01*
X147836185Y-74676000D02*
X150753093Y-71759093D01*
X161836185Y-67676000D02*
X164753093Y-64759093D01*
X161836185Y-53676000D02*
X164753093Y-50759093D01*
X175836185Y-60676000D02*
X178753093Y-57759093D01*
X168500000Y-67295000D02*
X168881000Y-67676000D01*
X144973000Y-60102000D02*
X144973000Y-59300000D01*
X144399000Y-74676000D02*
X147701000Y-74676000D01*
X175701000Y-74676000D02*
X175836185Y-74676000D01*
X189701000Y-74676000D02*
X189836185Y-74676000D01*
X190590000Y-53676000D02*
X190844000Y-53422000D01*
X144973000Y-65329000D02*
X144973000Y-66300000D01*
X192241000Y-63993000D02*
X192753093Y-64505093D01*
X158973000Y-60102000D02*
X158973000Y-59300000D01*
X161701000Y-53676000D02*
X162590000Y-53676000D01*
X164753093Y-50505093D02*
X164753093Y-50759093D01*
X144973000Y-72329000D02*
X144973000Y-73300000D01*
X185383000Y-70739000D02*
X186973000Y-72329000D01*
X192753093Y-64505093D02*
X192753093Y-64759093D01*
X140500000Y-60295000D02*
X140881000Y-60676000D01*
X189701000Y-74676000D02*
X190590000Y-74676000D01*
X175836185Y-53676000D02*
X178753093Y-50759093D01*
X172973000Y-58329000D02*
X172973000Y-59300000D01*
X157383000Y-56739000D02*
X158973000Y-58329000D01*
X158399000Y-67676000D02*
X158973000Y-67102000D01*
X172973000Y-72329000D02*
X172973000Y-73300000D01*
X164241000Y-56993000D02*
X164753093Y-57505093D01*
X190590000Y-60676000D02*
X190844000Y-60422000D01*
X189701000Y-67676000D02*
X189836185Y-67676000D01*
X168500000Y-60295000D02*
X168881000Y-60676000D01*
X176590000Y-60676000D02*
X176844000Y-60422000D01*
X168881000Y-60676000D02*
X172399000Y-60676000D01*
X186973000Y-53102000D02*
X186973000Y-52300000D01*
X172399000Y-74676000D02*
X172973000Y-74102000D01*
X143383000Y-56739000D02*
X144973000Y-58329000D01*
X172399000Y-60676000D02*
X175701000Y-60676000D01*
X175836185Y-74676000D02*
X178753093Y-71759093D01*
X147701000Y-67676000D02*
X147836185Y-67676000D01*
X189701000Y-53676000D02*
X190590000Y-53676000D01*
%TO.N,6 SDI*%
X176112200Y-70200800D02*
X179338000Y-70200800D01*
X142694800Y-49284200D02*
X144833200Y-49284200D01*
X144833200Y-56284200D02*
X146431000Y-57882000D01*
X162112200Y-63200800D02*
X165338000Y-63200800D01*
X174431000Y-71882000D02*
X176112200Y-70200800D01*
X142113000Y-56866000D02*
X142694800Y-56284200D01*
X165749200Y-70612000D02*
X165749200Y-73167800D01*
X146431000Y-50882000D02*
X148112200Y-49200800D01*
X148112200Y-70200800D02*
X151338000Y-70200800D01*
X176112200Y-56200800D02*
X179338000Y-56200800D01*
X148112200Y-63200800D02*
X151338000Y-63200800D01*
X184113000Y-56866000D02*
X184694800Y-56284200D01*
X193749200Y-52167800D02*
X192495000Y-53422000D01*
X172833200Y-63284200D02*
X174431000Y-64882000D01*
X190112200Y-70200800D02*
X193338000Y-70200800D01*
X165749200Y-73167800D02*
X164495000Y-74422000D01*
X142694800Y-56284200D02*
X144833200Y-56284200D01*
X151338000Y-49200800D02*
X151749200Y-49612000D01*
X156113000Y-70866000D02*
X156694800Y-70284200D01*
X165338000Y-63200800D02*
X165749200Y-63612000D01*
X160431000Y-50882000D02*
X162112200Y-49200800D01*
X179749200Y-70612000D02*
X179749200Y-73167800D01*
X146431000Y-64882000D02*
X148112200Y-63200800D01*
X156113000Y-56866000D02*
X156694800Y-56284200D01*
X179749200Y-49612000D02*
X179749200Y-52167800D01*
X193338000Y-56200800D02*
X193749200Y-56612000D01*
X176112200Y-49200800D02*
X179338000Y-49200800D01*
X162112200Y-49200800D02*
X165338000Y-49200800D01*
X160431000Y-64882000D02*
X162112200Y-63200800D01*
X188431000Y-50882000D02*
X190112200Y-49200800D01*
X179338000Y-49200800D02*
X179749200Y-49612000D01*
X184113000Y-70866000D02*
X184694800Y-70284200D01*
X179749200Y-63612000D02*
X179749200Y-66167800D01*
X193338000Y-63200800D02*
X193749200Y-63612000D01*
X142113000Y-49866000D02*
X142694800Y-49284200D01*
X170694800Y-56284200D02*
X172833200Y-56284200D01*
X142113000Y-63866000D02*
X142694800Y-63284200D01*
X179749200Y-66167800D02*
X178495000Y-67422000D01*
X142694800Y-63284200D02*
X144833200Y-63284200D01*
X156694800Y-56284200D02*
X158833200Y-56284200D01*
X186833200Y-70284200D02*
X188431000Y-71882000D01*
X188431000Y-57882000D02*
X190112200Y-56200800D01*
X179338000Y-63200800D02*
X179749200Y-63612000D01*
X151749200Y-56612000D02*
X151749200Y-59167800D01*
X193749200Y-49612000D02*
X193749200Y-52167800D01*
X151749200Y-63612000D02*
X151749200Y-66167800D01*
X142113000Y-70866000D02*
X142694800Y-70284200D01*
X184694800Y-56284200D02*
X186833200Y-56284200D01*
X148112200Y-56200800D02*
X151338000Y-56200800D01*
X162112200Y-56200800D02*
X165338000Y-56200800D01*
X174431000Y-57882000D02*
X176112200Y-56200800D01*
X165749200Y-59167800D02*
X164495000Y-60422000D01*
X184113000Y-63866000D02*
X184694800Y-63284200D01*
X151749200Y-73167800D02*
X150495000Y-74422000D01*
X165338000Y-70200800D02*
X165749200Y-70612000D01*
X151749200Y-70612000D02*
X151749200Y-73167800D01*
X188431000Y-64882000D02*
X190112200Y-63200800D01*
X172833200Y-56284200D02*
X174431000Y-57882000D01*
X151338000Y-70200800D02*
X151749200Y-70612000D01*
X193749200Y-66167800D02*
X192495000Y-67422000D01*
X172833200Y-70284200D02*
X174431000Y-71882000D01*
X151749200Y-52167800D02*
X150495000Y-53422000D01*
X144833200Y-70284200D02*
X146431000Y-71882000D01*
X170113000Y-49866000D02*
X170694800Y-49284200D01*
X184113000Y-49866000D02*
X184694800Y-49284200D01*
X160431000Y-71882000D02*
X162112200Y-70200800D01*
X184694800Y-63284200D02*
X186833200Y-63284200D01*
X179338000Y-56200800D02*
X179749200Y-56612000D01*
X158833200Y-49284200D02*
X160431000Y-50882000D01*
X190112200Y-56200800D02*
X193338000Y-56200800D01*
X158833200Y-63284200D02*
X160431000Y-64882000D01*
X156694800Y-63284200D02*
X158833200Y-63284200D01*
X193749200Y-73167800D02*
X192495000Y-74422000D01*
X193749200Y-63612000D02*
X193749200Y-66167800D01*
X142694800Y-70284200D02*
X144833200Y-70284200D01*
X186833200Y-63284200D02*
X188431000Y-64882000D01*
X172833200Y-49284200D02*
X174431000Y-50882000D01*
X193338000Y-70200800D02*
X193749200Y-70612000D01*
X144833200Y-49284200D02*
X146431000Y-50882000D01*
X174431000Y-50882000D02*
X176112200Y-49200800D01*
X179749200Y-59167800D02*
X178495000Y-60422000D01*
X184694800Y-70284200D02*
X186833200Y-70284200D01*
X158833200Y-70284200D02*
X160431000Y-71882000D01*
X156113000Y-49866000D02*
X156694800Y-49284200D01*
X146431000Y-57882000D02*
X148112200Y-56200800D01*
X190112200Y-49200800D02*
X193338000Y-49200800D01*
X165749200Y-56612000D02*
X165749200Y-59167800D01*
X179749200Y-73167800D02*
X178495000Y-74422000D01*
X165338000Y-56200800D02*
X165749200Y-56612000D01*
X156694800Y-70284200D02*
X158833200Y-70284200D01*
X174431000Y-64882000D02*
X176112200Y-63200800D01*
X151749200Y-49612000D02*
X151749200Y-52167800D01*
X170694800Y-63284200D02*
X172833200Y-63284200D01*
X148112200Y-49200800D02*
X151338000Y-49200800D01*
X186833200Y-49284200D02*
X188431000Y-50882000D01*
X165338000Y-49200800D02*
X165749200Y-49612000D01*
X151749200Y-59167800D02*
X150495000Y-60422000D01*
X193749200Y-59167800D02*
X192495000Y-60422000D01*
X193749200Y-56612000D02*
X193749200Y-59167800D01*
X144833200Y-63284200D02*
X146431000Y-64882000D01*
X190112200Y-63200800D02*
X193338000Y-63200800D01*
X156113000Y-63866000D02*
X156694800Y-63284200D01*
X151338000Y-56200800D02*
X151749200Y-56612000D01*
X176112200Y-63200800D02*
X179338000Y-63200800D01*
X179749200Y-56612000D02*
X179749200Y-59167800D01*
X162112200Y-70200800D02*
X165338000Y-70200800D01*
X193749200Y-70612000D02*
X193749200Y-73167800D01*
X170113000Y-70866000D02*
X170694800Y-70284200D01*
X151749200Y-66167800D02*
X150495000Y-67422000D01*
X170113000Y-63866000D02*
X170694800Y-63284200D01*
X165749200Y-52167800D02*
X164495000Y-53422000D01*
X179749200Y-52167800D02*
X178495000Y-53422000D01*
X188431000Y-71882000D02*
X190112200Y-70200800D01*
X165749200Y-49612000D02*
X165749200Y-52167800D01*
X193338000Y-49200800D02*
X193749200Y-49612000D01*
X151338000Y-63200800D02*
X151749200Y-63612000D01*
X165749200Y-63612000D02*
X165749200Y-66167800D01*
X184694800Y-49284200D02*
X186833200Y-49284200D01*
X170694800Y-49284200D02*
X172833200Y-49284200D01*
X158833200Y-56284200D02*
X160431000Y-57882000D01*
X170113000Y-56866000D02*
X170694800Y-56284200D01*
X156694800Y-49284200D02*
X158833200Y-49284200D01*
X165749200Y-66167800D02*
X164495000Y-67422000D01*
X146431000Y-71882000D02*
X148112200Y-70200800D01*
X160431000Y-57882000D02*
X162112200Y-56200800D01*
X170694800Y-70284200D02*
X172833200Y-70284200D01*
X179338000Y-70200800D02*
X179749200Y-70612000D01*
X186833200Y-56284200D02*
X188431000Y-57882000D01*
%TD*%
M02*
