M48
; DRILL file {KiCad 8.0.2} date 2026-04-29T21:42:42+0200
; FORMAT={-:-/ absolute / metric / decimal}
; #@! TF.CreationDate,2026-04-29T21:42:42+02:00
; #@! TF.GenerationSoftware,Kicad,Pcbnew,8.0.2
; #@! TF.FileFunction,Plated,1,2,PTH
FMAT,2
METRIC
; #@! TA.AperFunction,Plated,PTH,ViaDrill
T1C0.300
%
G90
G05
T1
X140.5Y-53.295
X140.5Y-60.295
X140.5Y-67.295
X140.5Y-74.295
X142.113Y-49.866
X142.113Y-56.866
X142.113Y-63.866
X142.113Y-70.866
X143.383Y-49.739
X143.383Y-56.739
X143.383Y-63.739
X143.383Y-70.739
X146.431Y-50.882
X146.431Y-57.882
X146.431Y-64.882
X146.431Y-71.882
X148.209Y-52.66
X148.209Y-59.66
X148.209Y-66.66
X148.209Y-73.66
X148.336Y-50.882
X148.336Y-57.882
X148.336Y-64.882
X148.336Y-71.882
X148.844Y-53.422
X148.844Y-60.422
X148.844Y-67.422
X148.844Y-74.422
X150.241Y-49.993
X150.241Y-56.993
X150.241Y-63.993
X150.241Y-70.993
X150.495Y-53.422
X150.495Y-60.422
X150.495Y-67.422
X150.495Y-74.422
X154.5Y-53.295
X154.5Y-60.295
X154.5Y-67.295
X154.5Y-74.295
X156.113Y-49.866
X156.113Y-56.866
X156.113Y-63.866
X156.113Y-70.866
X157.383Y-49.739
X157.383Y-56.739
X157.383Y-63.739
X157.383Y-70.739
X160.431Y-50.882
X160.431Y-57.882
X160.431Y-64.882
X160.431Y-71.882
X162.209Y-52.66
X162.209Y-59.66
X162.209Y-66.66
X162.209Y-73.66
X162.336Y-50.882
X162.336Y-57.882
X162.336Y-64.882
X162.336Y-71.882
X162.844Y-53.422
X162.844Y-60.422
X162.844Y-67.422
X162.844Y-74.422
X164.241Y-49.993
X164.241Y-56.993
X164.241Y-63.993
X164.241Y-70.993
X164.495Y-53.422
X164.495Y-60.422
X164.495Y-67.422
X164.495Y-74.422
X168.5Y-53.295
X168.5Y-60.295
X168.5Y-67.295
X168.5Y-74.295
X170.113Y-49.866
X170.113Y-56.866
X170.113Y-63.866
X170.113Y-70.866
X171.383Y-49.739
X171.383Y-56.739
X171.383Y-63.739
X171.383Y-70.739
X174.431Y-50.882
X174.431Y-57.882
X174.431Y-64.882
X174.431Y-71.882
X176.209Y-52.66
X176.209Y-59.66
X176.209Y-66.66
X176.209Y-73.66
X176.336Y-50.882
X176.336Y-57.882
X176.336Y-64.882
X176.336Y-71.882
X176.844Y-53.422
X176.844Y-60.422
X176.844Y-67.422
X176.844Y-74.422
X178.241Y-49.993
X178.241Y-56.993
X178.241Y-63.993
X178.241Y-70.993
X178.495Y-53.422
X178.495Y-60.422
X178.495Y-67.422
X178.495Y-74.422
X182.5Y-53.295
X182.5Y-60.295
X182.5Y-67.295
X182.5Y-74.295
X184.113Y-49.866
X184.113Y-56.866
X184.113Y-63.866
X184.113Y-70.866
X185.383Y-49.739
X185.383Y-56.739
X185.383Y-63.739
X185.383Y-70.739
X188.431Y-50.882
X188.431Y-57.882
X188.431Y-64.882
X188.431Y-71.882
X190.209Y-52.66
X190.209Y-59.66
X190.209Y-66.66
X190.209Y-73.66
X190.336Y-50.882
X190.336Y-57.882
X190.336Y-64.882
X190.336Y-71.882
X190.844Y-53.422
X190.844Y-60.422
X190.844Y-67.422
X190.844Y-74.422
X192.241Y-49.993
X192.241Y-56.993
X192.241Y-63.993
X192.241Y-70.993
X192.495Y-53.422
X192.495Y-60.422
X192.495Y-67.422
X192.495Y-74.422
M30
